<?xml version="1.0" encoding="UTF-8"?>
<svg width="281.58" height="394.3" version="1.1" viewBox="0 0 281.5834 394.29761" xmlns="http://www.w3.org/2000/svg" xmlns:cc="http://creativecommons.org/ns#" xmlns:dc="http://purl.org/dc/elements/1.1/" xmlns:rdf="http://www.w3.org/1999/02/22-rdf-syntax-ns#">
<metadata>
<rdf:RDF>
<cc:Work rdf:about="">
<dc:format>image/svg+xml</dc:format>
<dc:type rdf:resource="http://purl.org/dc/dcmitype/StillImage"/>
<dc:title/>
</cc:Work>
</rdf:RDF>
</metadata>
<g transform="translate(-64.42 -2.8556)" fill-rule="evenodd">
<path d="m200.16 3.368c-0.125 0.326-0.166 1.771-0.092 3.213 0.142 2.762-0.563 3.493-2.044 2.119-0.431-0.4-0.482-0.4-0.256 0 0.155 0.275 0.092 0.5-0.141 0.5s-0.424-0.195-0.424-0.433c0-0.239-0.466-0.094-1.036 0.321-1.099 0.801-1.768 11.149-0.784 12.132 0.506 0.506 3.42 0.489 3.42-0.02 0-0.22 0.27-0.4 0.6-0.4 1.64 0 0.73 3.877-1.4 5.962-1.361 1.333-2 2.283-2 2.975 0 1.451-0.626 1.641-1.178 0.358-1.034-2.405-6.232-3.97-7.622-2.295-0.274 0.33-0.752 0.6-1.062 0.6s-0.693 0.337-0.851 0.749c-0.27 0.706-0.415 0.716-2.487 0.175-3.349-0.875-7.159 0.514-7.187 2.619-0.012 0.835-0.14 0.909-1.113 0.64-0.605-0.167-1.402-0.315-1.771-0.329-0.368-0.014-0.583-0.167-0.476-0.34s-0.221-0.312-0.729-0.31c-0.991 4e-3 -5.147 2.216-5.078 2.703 0.213 1.526-0.535 2.028-2.254 1.511-1.773-0.534-5.392-0.098-5.392 0.649 0 0.183-0.225 0.337-0.5 0.342-0.275 4e-3 -0.77 0.589-1.1 1.3-0.611 1.314-1.833 1.585-2.494 0.551-0.162-0.253-0.297-0.289-0.3-0.08s-0.222 0.164-0.486-0.1c-0.584-0.584-3.375-0.639-3.724-0.073-0.138 0.223-0.419 0.302-0.624 0.176-0.204-0.127-0.372-0.04-0.372 0.193s-0.249 0.424-0.554 0.424c-0.877 0-1.783 1.732-2.081 3.98-0.256 1.928-0.346 2.062-1.32 1.975-4.401-0.397-8.227 5.406-5.416 8.216 0.571 0.572 0.571 0.629 0 0.629-0.346 0-0.629 0.177-0.629 0.392 0 0.216-0.45 0.506-1 0.644s-1 0.501-1 0.807c0 0.307-0.162 0.557-0.361 0.557-0.452 0-1.099 1.925-1.017 3.028 0.132 1.765 0.629 3.772 0.935 3.772 1.19 0 2.027 1.49 1.238 2.205-2.551 2.308 0.033 8.595 3.533 8.595h1.53l-0.083 2c-0.046 1.1 0.076 2 0.271 2s0.354 0.384 0.354 0.854c0 0.948 1.716 2.746 2.621 2.746 0.318 0 0.579 0.18 0.579 0.4s0.27 0.4 0.6 0.4c0.517 0 0.84 1.236 0.651 2.488-0.024 0.158 0.32 0.483 0.764 0.72 0.444 0.238 0.699 0.608 0.566 0.822-0.132 0.214-0.092 0.342 0.089 0.283 0.8-0.259 2.204 1.225 1.941 2.051-0.156 0.492-0.089 0.836 0.162 0.836 0.235 0 0.428-0.315 0.43-0.7 0.012-2.76 7.138-2.522 8.59 0.287 2.02 3.906-3.873 9.831-6.432 6.468-0.256-0.336-0.651-0.446-0.945-0.265-0.773 0.478 1.901 2.01 3.26 1.868 0.961-0.101 1.131 0.031 1.174 0.912 0.076 1.572 0.083 1.59 1.15 3.157 0.55 0.807 1.206 1.469 1.457 1.47 0.252 2e-3 0.561 0.273 0.688 0.603 0.126 0.33 0.513 0.6 0.86 0.6 0.346 0 1.115 0.45 1.708 1 0.594 0.55 1.319 1 1.611 1 0.293 0 0.803 0.27 1.133 0.6s0.947 0.6 1.372 0.6c0.424 0 0.771 0.18 0.771 0.4s0.495 0.401 1.1 0.402c0.605 2e-3 1.61 0.269 2.234 0.594 0.624 0.326 2.012 0.623 3.085 0.661s1.873 0.194 1.778 0.348c-0.095 0.153 0.317 0.288 0.915 0.299 1.7 0.031 5.045 0.57 5.488 0.884 0.22 0.156 1.39 0.328 2.6 0.382s4.36 0.283 7 0.51c6.81 0.585 22.2 0.802 22.2 0.313 0-0.216 0.135-0.358 0.3-0.316 0.89 0.228 12.535-0.61 12.724-0.915 0.123-0.199 1.002-0.362 1.954-0.362s2.246-0.269 2.876-0.598c0.63-0.328 2.091-0.598 3.246-0.6 1.155-1e-3 2.1-0.169 2.1-0.373s0.992-0.495 2.205-0.647 2.304-0.434 2.424-0.629c0.12-0.194 0.573-0.353 1.007-0.353s0.893-0.27 1.019-0.6c0.127-0.33 0.601-0.6 1.053-0.6 1.059 0 4.761-2.365 4.461-2.851-0.126-0.203-0.08-0.343 0.101-0.312 1.388 0.242 2.93-1.96 2.93-4.184 0-1.307 0.11-1.458 1.1-1.499 1.997-0.084 4.1-0.876 4.1-1.544 0-0.611-1.057-0.495-1.743 0.19-1.948 1.948-6.657-1.301-6.657-4.594 0-3.591 3.5-5.23 7.493-3.508l2.093 0.902 7e-3 2.78c5e-3 2.071 0.123 2.664 0.46 2.327 0.611-0.611 0.578-4.346-0.044-5.097-0.607-0.73-0.262-1.81 0.578-1.81 1.094 0 2.213-1.518 2.213-3 0-0.986 0.18-1.4 0.608-1.4 0.933 0 3.792-1.939 3.792-2.572 0-0.309 0.224-0.636 0.497-0.727 0.33-0.11 0.486-0.997 0.464-2.633l-0.034-2.468h1.437c2.219-1e-3 5.063-3.062 4.177-4.495-0.157-0.254-0.076-0.312 0.197-0.143 0.299 0.184 0.46-0.041 0.456-0.638-5e-3 -0.756-0.081-0.815-0.418-0.324-0.342 0.499-0.401 0.465-0.348-0.2 0.134-1.678-0.049-2.564-0.657-3.171-0.571-0.572-0.571-0.629 0-0.629 0.346 0 0.629-0.27 0.629-0.6s0.147-0.6 0.326-0.6c0.436 0 1.674-2.636 1.674-3.565 0-1.994-1.416-3.914-4.357-5.909-0.086-0.059 0.058-0.365 0.32-0.682 1.672-2.015-0.346-7.379-2.796-7.431-0.349-7e-3 -0.763-0.143-0.922-0.301-0.158-0.159-0.908-0.235-1.666-0.169l-1.379 0.118v-1.796c0-1.788-1.984-4.665-3.217-4.665-0.236 0-0.319-0.18-0.183-0.4 0.155-0.25-0.67-0.4-2.2-0.4-1.48 0-2.352 0.153-2.207 0.388 0.132 0.214-0.263 0.512-0.877 0.662s-1.226 0.44-1.36 0.644c-0.133 0.204-0.35-0.166-0.482-0.822-0.5-2.5-7.025-4.492-8.246-2.517-0.469 0.758-1.228 0.19-1.228-0.917 0-1.71-2.202-3.333-4.2-3.097-0.662 0.078-0.697 0.024-0.2-0.317 0.464-0.318 0.282-0.412-0.8-0.412-1.05 0-1.25 0.097-0.8 0.388 0.47 0.304 0.369 0.389-0.467 0.394-0.587 3e-3 -1.316 0.101-1.62 0.218-0.347 0.133-0.888-0.386-1.458-1.4-0.556-0.988-1.197-1.612-1.657-1.612-0.413 0-0.855-0.169-0.983-0.376-0.327-0.529-4.173-0.143-5.185 0.52-0.871 0.57-1.83 0.085-1.83-0.927 0-0.229-0.193-0.417-0.429-0.417-0.235 0-0.698-0.27-1.028-0.6-1.447-1.447-4.887-0.795-6.859 1.3-0.984 1.045-1.676 1.694-1.539 1.442 0.138-0.252-0.019-0.561-0.347-0.688-0.329-0.126-0.6-0.55-0.602-0.941-3e-3 -0.392-0.721-1.462-1.597-2.378-2.546-2.662-3.308-5.735-1.423-5.735 0.537 0 1.088 0.18 1.224 0.4 0.539 0.871 2.604 0.442 3.01-0.626 0.662-1.741 0.496-10.41-0.212-11.119-0.846-0.846-2.329-1.263-2.514-0.708-0.083 0.249-0.664 0.453-1.292 0.453-1.139 0-1.522-1.061-0.795-2.2 0.141-0.22 0.244-1.21 0.229-2.2l-0.026-1.8-5.508-0.111c-4.562-0.093-5.547-0.01-5.735 0.479m1.254 36.381c1.956 1.361 5.545 1.457 7.943 0.213 2.291-1.187 3.57 0.26 5.691 6.438 1.641 4.782 0.582 18.819-1.651 21.877-0.848 1.162-14.104 1.328-15.134 0.19-3.698-4.087-3.811-18.382-0.206-25.967 1.61-3.386 1.993-3.7 3.357-2.751m-9.411 2.639c0 0.213-0.487 1.788-1.082 3.5-2.015 5.793-1.007 19.974 1.531 21.542 0.435 0.269 0.463 1.654 0.039 1.916-0.172 0.106-2.917 0.479-6.1 0.829s-6.696 0.781-7.806 0.958c-2.722 0.434-2.816 0.376-4.351-2.672-5.744-11.405-2.705-21.808 7.213-24.691 5.312-1.544 10.556-2.231 10.556-1.382m35.742 0.843c11.985 3.006 15.422 12.06 9.384 24.72l-1.598 3.351-2.664-0.228c-4.311-0.37-12.876-1.424-13.702-1.686-0.974-0.309-0.96-0.541 0.201-3.301 2.799-6.648 3.176-13.433 1.087-19.546-0.687-2.012-1.25-3.883-1.25-4.158 0-0.685 4.022-0.286 8.542 0.848m-24.9 0.729c-1.542 1.442-1.717 3.849-0.412 5.682l0.83 1.166-0.83 1.343c-1.04 1.683-1.056 3.431-0.047 5.313 0.777 1.45 0.777 1.468 0 2.56-1.364 1.915-1.081 4.508 0.634 5.816 3.881 2.96 8.341-0.783 6.2-5.205l-0.888-1.835 0.835-1.726c0.46-0.95 0.836-1.973 0.836-2.274s-0.376-1.324-0.836-2.274l-0.835-1.726 0.888-1.835c2.165-4.471-2.785-8.358-6.375-5.005m-41.306 7.792c0.175 0.921-0.564 1.434-2.076 1.442-3.357 0.018-5.101 5.005-2.693 7.7 1.076 1.204 1.358 1.306 3.6 1.306 1.338 0 2.433 0.135 2.433 0.3s-0.235 0.3-0.522 0.3c-0.286 0-1.111 0.608-1.831 1.352-3.93 4.054 0.251 10.183 5.202 7.623 0.915-0.473 1.342-0.515 1.756-0.171 0.971 0.806 0.209 1.484-2.931 2.609-1.691 0.606-4.122 1.534-5.404 2.062-2.703 1.114-3.376 0.993-5.046-0.909-4.58-5.216-5.926-15.611-2.593-20.028 2.368-3.14 9.696-5.74 10.105-3.586m94.252 0.642c6.432 3.07 7.889 11.158 3.553 19.72-2.138 4.223-4.001 5.558-6.281 4.502-1.472-0.681-6.301-2.494-8.12-3.048-1.443-0.439-1.945-1.3-1.145-1.964 0.414-0.344 0.841-0.302 1.756 0.171 5.143 2.659 9.206-3.523 5.049-7.68-0.99-0.99-1.8-1.822-1.8-1.848s0.971-0.047 2.158-0.047c2.456 0 3.587-0.736 4.52-2.941 1.141-2.698-1.135-6.059-4.104-6.059-1.472 0-2.061-0.676-1.61-1.85 0.345-0.901 2.863-0.464 6.024 1.044m-47.907 24.442c3.117 1.166 2.674 6.857-0.618 7.943-5.649 1.865-8.516-5.823-3.063-8.215 1.148-0.503 1.719-0.461 3.681 0.272m-24.581 5.957c2.499 1.111 2.452 1.884-0.241 3.961l-2.141 1.652-1.613-0.569c-4.173-1.472-4.724-2.109-3.064-3.54 0.573-0.493 1.5-1.319 2.061-1.835 1.158-1.064 1.985-1.009 4.998 0.331m50.399 0.307c2.98 2.628 2.98 2.624-0.274 4.147-2.902 1.358-3.235 1.295-5.973-1.135-1.96-1.738-1.842-2.219 0.848-3.447 3.005-1.372 3.385-1.341 5.399 0.435m-100.7 6.824c-2.295 1.158-2.593 1.276-3.233 1.276-0.354 0-1.121 0.249-1.705 0.554-0.584 0.304-1.782 0.889-2.662 1.3-0.88 0.41-1.66 0.881-1.733 1.046-0.074 0.165-0.357 0.3-0.631 0.3-0.273 0-0.919 0.45-1.436 1s-1.15 1-1.408 1-1.247 0.855-2.198 1.9-1.834 1.873-1.962 1.84c-0.127-0.033-0.193 0.085-0.145 0.262s-0.177 0.541-0.5 0.809-0.587 0.657-0.587 0.865c0 0.207-0.449 0.965-0.997 1.684s-1.11 1.877-1.25 2.573c-0.139 0.697-0.411 1.267-0.603 1.267s-0.35 0.463-0.35 1.029c0 0.565-0.24 1.268-0.533 1.561-0.305 0.305-0.571 1.593-0.622 3.012-0.088 2.428-0.213 2.739-1.845 4.574-1.224 1.376-3.4 4.599-3.4 5.036 0 0.213-0.225 0.39-0.5 0.393-0.275 2e-3 -0.844 0.722-1.264 1.6-0.421 0.877-0.916 1.595-1.1 1.595-0.185 0-0.336 0.371-0.336 0.824s-0.16 0.725-0.355 0.604c-0.195-0.12-0.455 0.169-0.579 0.642-0.335 1.279-1.333 0.282-1.588-1.585-0.368-2.693-0.556-3.468-1.221-5.034-0.361-0.852-0.657-1.874-0.657-2.271 0-0.398-0.27-0.993-0.6-1.323s-0.6-0.704-0.6-0.83c0-0.127-0.45-1.164-1-2.304s-1-2.315-1-2.61c0-0.296-0.27-0.642-0.6-0.768-0.33-0.127-0.6-0.544-0.6-0.927 0-1.046-1.368-2.414-2.447-2.446-0.897-0.027-0.906-0.05-0.153-0.397l0.8-0.368-0.8 0.099c-0.44 0.054-0.978 0.503-1.195 0.996-0.217 0.494-0.528 0.898-0.69 0.898s-0.664 0.81-1.115 1.8-0.995 1.8-1.21 1.8c-0.214 0-0.39 0.37-0.39 0.823s-0.45 1.629-1 2.614-1 2.064-1 2.397-0.278 1.143-0.617 1.799c-0.34 0.657-0.655 1.71-0.7 2.341-0.046 0.632-0.218 1.065-0.383 0.963-0.165-0.101-0.307-0.129-0.315-0.061-0.256 2.096-0.534 3.406-0.789 3.724-0.499 0.621-0.512 13-0.014 13 0.23 0 0.418 0.611 0.418 1.357 0 0.838 0.23 1.446 0.6 1.588 0.351 0.134 0.6 0.734 0.6 1.442 0 0.667 0.16 1.213 0.355 1.213 0.196 0 0.468 0.585 0.605 1.3s0.96 2.065 1.829 3c0.868 0.935 1.451 1.705 1.295 1.712s7e-3 0.182 0.362 0.39c0.91 0.531 0.668 1.864-0.889 4.893-0.196 0.382-0.357 1.237-0.357 1.9s-0.177 1.205-0.392 1.205c-0.216 0-0.5 0.495-0.631 1.1-0.648 2.982-2.478 2.554-2.563-0.6-8e-3 -0.275-0.18-0.5-0.382-0.5-0.203 0-0.479-0.505-0.615-1.122-0.136-0.618-0.6-1.377-1.032-1.689-0.432-0.311-0.785-0.779-0.785-1.039 0-0.56-2.192-3.334-4.304-5.447-2.532-2.534-5.296-1.963-5.296 1.094 0 0.578-0.161 0.951-0.358 0.829-0.467-0.288-0.671 0.366-0.805 2.574-0.061 0.99-0.257 1.98-0.436 2.2-0.445 0.545-0.522 12.078-0.083 12.349 0.193 0.12 0.382 1.04 0.42 2.045 0.09 2.364 0.162 2.679 0.762 3.325 0.275 0.296 0.5 0.987 0.5 1.536s0.45 1.588 1 2.309c0.55 0.722 1 1.585 1 1.919 0 0.805 2.373 3.79 5.7 7.169l2.7 2.742v9.292l-2.6-2.732c-1.43-1.502-2.6-2.871-2.6-3.042 0-0.172-0.27-0.312-0.6-0.312s-0.6-0.256-0.6-0.568c0-0.838-5.136-5.832-5.997-5.832-0.221 0-0.403-0.27-0.403-0.6 0-1.18-2.742-0.772-3.049 0.455-0.37 1.473 0.109 9.695 0.6 10.286 0.222 0.267 0.448 1.357 0.503 2.421s0.291 2.138 0.524 2.387c0.233 0.248 0.772 1.441 1.199 2.651 0.426 1.21 1.01 2.65 1.296 3.2 0.287 0.55 0.523 1.199 0.525 1.442 1e-3 0.242 0.443 0.917 0.983 1.5 0.539 0.582 0.854 1.064 0.7 1.071-0.155 7e-3 0.048 0.262 0.449 0.566 0.402 0.305 0.786 0.884 0.854 1.287 0.067 0.404 0.323 0.689 0.569 0.634s0.447 0.072 0.447 0.282c0 0.529 4.253 4.808 6.2 6.238 0.88 0.646 1.744 1.401 1.92 1.678 0.176 0.276 0.605 0.502 0.953 0.502 0.791 0 2.096 1.448 2.613 2.9 0.216 0.605 0.555 1.1 0.753 1.1 0.199 0 0.361 0.72 0.361 1.6s0.18 1.6 0.4 1.6 0.367 0.135 0.326 0.3 0.231 1.003 0.605 1.861c0.808 1.857 0.643 2.213-0.498 1.072-0.458-0.458-0.833-0.736-0.833-0.617 0 0.118-0.405-0.173-0.9-0.647-0.495-0.475-1.44-1.098-2.1-1.385s-1.597-0.896-2.083-1.353-1.257-0.831-1.713-0.831-0.926-0.254-1.045-0.563c-0.119-0.31-0.789-0.795-1.488-1.078-0.699-0.282-1.395-0.696-1.545-0.919-0.151-0.222-0.871-0.468-1.6-0.545-0.73-0.078-1.51-0.356-1.734-0.618-0.668-0.781-2.119-1.477-3.087-1.479-0.498-2e-3 -1.431-0.277-2.073-0.612-1.38-0.72-1.778-0.43-2.095 1.527-0.3 1.844 0.205 5.97 0.692 5.669 0.204-0.126 0.371 0.352 0.371 1.063s0.269 1.59 0.599 1.954c0.329 0.363 0.638 1.138 0.686 1.721 0.048 0.584 0.319 1.149 0.601 1.258 0.283 0.108 0.514 0.563 0.514 1.009 0 0.447 0.135 0.814 0.3 0.816 0.406 3e-3 1.7 2.319 1.7 3.042 0 0.319 0.27 0.684 0.6 0.81 0.33 0.127 0.6 0.511 0.6 0.854 0 0.344 0.118 0.507 0.261 0.363 0.144-0.144 0.639 0.246 1.1 0.867 1.036 1.393 6.266 6.061 6.792 6.061 0.211 0 0.668 0.255 1.016 0.567 0.861 0.772 6.022 3.433 6.659 3.433 0.283 0 0.753 0.225 1.043 0.5 0.291 0.275 1.116 0.557 1.834 0.626 0.718 0.07 1.798 0.384 2.4 0.698s1.839 0.572 2.749 0.574c0.91 1e-3 2.157 0.263 2.772 0.582 0.614 0.318 1.265 0.488 1.445 0.376 0.181-0.112 0.329 1e-3 0.329 0.251 0 0.249 0.81 1.506 1.8 2.793s1.8 2.533 1.8 2.77c0 0.236 0.191 0.43 0.424 0.43s0.318 0.171 0.188 0.38c-0.129 0.209 0.131 0.575 0.577 0.814s0.811 0.63 0.811 0.869c0 0.299-0.157 0.307-0.5 0.028-0.275-0.225-1.215-0.502-2.089-0.618-0.875-0.115-1.655-0.404-1.734-0.641-0.079-0.238-0.944-0.432-1.923-0.432-1.083 0-1.857-0.202-1.977-0.516-0.109-0.283-0.778-0.567-1.487-0.63-1.806-0.161-2.932-0.325-5.69-0.829-1.32-0.242-2.625-0.466-2.9-0.499s-0.5-0.171-0.5-0.308c0-0.588-6.785-0.376-7.393 0.232-0.787 0.787-0.791 2.904-7e-3 3.205 0.33 0.127 0.6 0.481 0.6 0.788 0 0.306 0.177 0.557 0.392 0.557 0.216 0 0.505 0.449 0.643 0.997 0.138 0.549 0.411 0.898 0.608 0.777 0.196-0.122 0.357 0.049 0.357 0.38 0 0.33 0.516 0.905 1.146 1.278 0.63 0.372 1.452 1.195 1.827 1.829 0.374 0.634 0.827 1.063 1.006 0.952s0.932 0.333 1.673 0.986c0.742 0.654 1.644 1.191 2.005 1.195 0.362 3e-3 0.761 0.276 0.888 0.606 0.126 0.33 0.506 0.6 0.842 0.6 0.337 0 0.613 0.16 0.613 0.357 0 0.196 0.457 0.471 1.016 0.611 0.559 0.141 0.909 0.43 0.777 0.644-0.138 0.223 0.365 0.388 1.183 0.388 0.783 0 1.424 0.168 1.424 0.373 0 0.429 1.558 1.03 2.3 0.888 0.275-0.053 0.5 0.092 0.5 0.321 0 0.23 0.338 0.418 0.751 0.418s0.952 0.243 1.199 0.539c0.286 0.345 1.492 0.57 3.34 0.624 1.599 0.047 3.015 0.283 3.167 0.529 0.151 0.245 1.505 0.522 3.009 0.616 1.504 0.093 2.824 0.293 2.934 0.443 0.11 0.149 1.46 0.329 3 0.398 1.54 0.07 2.86 0.291 2.934 0.491 0.074 0.201 0.299 0.263 0.5 0.139s0.366-0.02 0.366 0.232c0 0.327-0.77 0.375-2.7 0.167-4.151-0.447-13.695-0.292-13.699 0.222 0 0.11-0.856 0.206-1.901 0.213-3.629 0.025-6.303 0.317-6.877 0.751-0.457 0.345-0.507 0.311-0.241-0.164 0.273-0.488 0.235-0.507-0.203-0.1-0.297 0.275-1.164 0.5-1.928 0.5-0.763 0-1.673 0.258-2.021 0.573-0.349 0.315-1.083 0.634-1.632 0.707-0.549 0.074-1.432 0.438-1.963 0.81s-1.116 0.584-1.3 0.47-0.335-0.029-0.335 0.189c0 0.219-0.363 0.512-0.806 0.653s-0.702 0.423-0.576 0.627-0.051 0.371-0.394 0.371-0.624 0.27-0.624 0.6-0.27 0.6-0.6 0.6-0.6 0.27-0.6 0.6-0.142 0.6-0.315 0.6c-0.771 0-0.888 13.233-0.125 14.152 0.246 0.296 0.254 0.696 0.023 1.061-0.204 0.323-0.371 0.767-0.371 0.987s0.175 0.13 0.388-0.2c0.286-0.442 0.407-0.126 0.462 1.2 0.041 0.99 0.115 2.07 0.164 2.4s0.108 0.836 0.131 1.124c0.024 0.288 0.223 0.412 0.443 0.276 0.25-0.154 0.4 0.655 0.4 2.153 0 1.32 0.162 2.5 0.361 2.623 0.29 0.179 0.962 3.863 1.025 5.624 8e-3 0.22 0.131 0.49 0.273 0.6 0.143 0.11 0.323 0.74 0.4 1.4 0.078 0.66 0.353 1.38 0.613 1.6 0.259 0.22 0.523 1.03 0.585 1.8 0.145 1.778 3.398 5.009 5.428 5.39 0.736 0.138 1.232 0.421 1.103 0.63-0.13 0.209 0.195 0.38 0.722 0.38 0.526 0 1.076 0.119 1.222 0.265 0.945 0.945 13.7 1.045 14.291 0.112 0.317-0.502 0.366-0.501 0.371 3e-3 5e-3 0.451 0.113 0.473 0.486 0.1 0.264-0.264 0.894-0.48 1.4-0.48s0.92-0.188 0.92-0.418c0-0.229 0.225-0.375 0.5-0.324 1.113 0.207 5.737-1.126 6.731-1.941 0.348-0.284 0.935-0.517 1.306-0.517s0.986-0.166 1.368-0.368 1.481-0.75 2.441-1.218c1.906-0.927 2.854-1.719 2.854-2.385 0-0.236 0.36-0.429 0.8-0.429s0.8-0.184 0.8-0.409 0.45-0.115 1 0.246c0.55 0.36 1 0.538 1 0.395s0.405-0.036 0.9 0.238 1.44 0.565 2.099 0.647c0.66 0.083 1.38 0.29 1.6 0.461 0.46 0.358 2.654 0.985 3.101 0.888 0.165-0.036 0.3 0.097 0.3 0.296 0 0.2 0.9 0.487 2 0.638s2 0.438 2 0.638c0 0.199 0.585 0.368 1.3 0.375s1.649 0.277 2.076 0.6c0.428 0.323 1.283 0.587 1.9 0.587 0.618 0 1.124 0.18 1.124 0.4s0.135 0.366 0.3 0.325c0.537-0.135 3.848 0.563 4.685 0.987 2.269 1.149 2.307 1.161 1.98 0.618-0.227-0.378-0.113-0.363 0.399 0.052 0.394 0.321 0.985 0.622 1.313 0.67 2.221 0.326 0.74 1.275-2.213 1.417-1.394 0.068-2.61 0.244-2.702 0.392-0.091 0.148-0.93 0.386-1.864 0.529-1.796 0.275-4.298 1.381-4.298 1.901 0 0.17-0.63 0.309-1.4 0.309s-1.4 0.166-1.4 0.368c0 0.203-0.54 0.487-1.2 0.632s-1.2 0.41-1.2 0.588c0 0.179-0.45 0.438-1 0.576s-1 0.428-1 0.644c0 0.215-0.329 0.392-0.73 0.392-0.402 0-1.153 0.45-1.67 1s-1.178 1-1.47 1c-0.291 0-0.53 0.27-0.53 0.6s-0.18 0.6-0.4 0.6c-0.686 0-1.8 1.362-1.8 2.2 0 0.783 1.307 2.088 1.9 1.897 0.165-0.053 0.3 0.184 0.3 0.527s0.148 0.532 0.329 0.42c0.18-0.112 0.81 0.047 1.4 0.353 0.589 0.305 1.071 0.499 1.071 0.431 0-0.117 2.555 0.338 4.8 0.856 1.822 0.419 12.454 0.569 12.934 0.181 0.256-0.207 1.772-0.504 3.368-0.661 1.595-0.157 3.001-0.447 3.123-0.645 0.122-0.197 0.559-0.359 0.97-0.359s1.018-0.27 1.348-0.6 0.766-0.6 0.969-0.6 1.215-0.45 2.25-1c1.034-0.55 2.141-1 2.459-1 0.319 0 0.581-0.225 0.584-0.5 2e-3 -0.275 0.722-0.844 1.6-1.264 0.877-0.421 1.595-0.916 1.595-1.1 0-0.185 0.27-0.336 0.6-0.336s0.6-0.165 0.6-0.367 0.675-0.784 1.5-1.292 1.86-1.29 2.3-1.737c1.08-1.097 2.412-2.103 2.106-1.59-0.153 0.257 0.427 0.444 1.526 0.492 1.48 0.064 8.865 6.094 7.465 6.094-0.085 0 0.489 0.606 1.275 1.347 0.785 0.741 1.428 1.551 1.428 1.8s0.27 0.453 0.6 0.453 0.6 0.24 0.6 0.532c0 0.293 0.45 0.774 1 1.068 1.752 0.937 1.182 1.002-8.209 0.923-5.687-0.048-9.121 0.067-8.977 0.3 0.128 0.207-0.362 0.387-1.09 0.4-3.759 0.065-9.524 1.308-9.524 2.053 0 0.178-0.527 0.324-1.171 0.324-0.645 0-1.442 0.27-1.772 0.6s-0.983 0.6-1.452 0.6-0.741 0.18-0.605 0.4-0.024 0.4-0.357 0.4c-0.332 0-0.78 0.315-0.995 0.7s-0.494 0.655-0.62 0.6c-1.093-0.479-2.999 1.474-2.743 2.81 0.279 1.462 2.127 2.954 4.064 3.281 0.91 0.154 1.576 0.407 1.48 0.561-0.095 0.155 0.179 0.308 0.609 0.341 0.431 0.032 1.346 0.34 2.034 0.683s1.763 0.624 2.389 0.624c0.627 0 1.139 0.144 1.139 0.32s0.405 0.328 0.9 0.337 1.98 0.137 3.3 0.284c4.759 0.532 9.24 0.658 11.312 0.32 1.17-0.191 2.207-0.193 2.324-3e-3 0.116 0.188 0.046 0.342-0.156 0.342-0.203 0-1.036 0.63-1.853 1.4-0.816 0.77-1.614 1.4-1.773 1.4s-1.038 0.698-1.953 1.552c-0.916 0.853-1.741 1.475-1.834 1.382-0.093-0.094-0.718 0.378-1.388 1.048-0.669 0.67-1.405 1.218-1.634 1.218s-0.618 0.375-0.863 0.834c-0.246 0.459-0.541 0.74-0.657 0.624-0.23-0.23-0.375-0.125-2.725 1.964-0.88 0.782-2.272 1.884-3.093 2.449-0.822 0.565-1.396 1.185-1.277 1.378 0.12 0.193-0.108 0.354-0.506 0.358-2.084 0.02-3.508 5.077-1.824 6.476 0.275 0.228 0.5 0.927 0.5 1.552 0 1.16 0.905 1.965 2.21 1.965 0.791 0 2.469-1.241 4.465-3.3 0.799-0.825 1.695-1.5 1.989-1.5 0.295 0 0.536-0.27 0.536-0.6s0.176-0.555 0.39-0.5c0.215 0.055 0.858-0.44 1.429-1.1 0.572-0.66 0.914-0.957 0.762-0.66-0.282 0.548 2.038-1.456 4.476-3.868 0.739-0.731 1.346-1.181 1.349-1 3e-3 0.18 0.138 0.142 0.3-0.086 0.162-0.227 0.834-0.828 1.494-1.335 0.66-0.506 2.19-1.805 3.4-2.885 3.562-3.181 4.571-3.965 5.1-3.966 0.275 0 0.5-0.18 0.5-0.4s0.36-0.76 0.8-1.2 0.8-0.704 0.8-0.586c0 0.117 0.534-0.333 1.187-1 0.652-0.668 1.402-1.214 1.666-1.214s0.36-0.121 0.212-0.268c-0.147-0.147 0.453-0.697 1.334-1.223 0.88-0.525 1.601-1.124 1.601-1.332 0-0.207 0.281-0.377 0.624-0.377s0.524-0.16 0.403-0.356 0.273-0.678 0.876-1.07c0.604-0.393 1.277-0.934 1.497-1.204 0.86-1.053 2.04-1.008 3.284 0.124 1.22 1.11 3.715 3.213 5.582 4.706 0.551 0.44 1.661 1.431 2.468 2.201 0.806 0.771 2.14 1.851 2.963 2.4 0.824 0.55 1.499 1.134 1.5 1.299 2e-3 0.165 0.284 0.3 0.627 0.3s0.52 0.167 0.394 0.371 0.133 0.486 0.576 0.627 0.806 0.43 0.806 0.642c0 0.213 0.63 0.759 1.399 1.213 0.77 0.454 1.282 1.016 1.139 1.248-0.144 0.232-0.086 0.314 0.129 0.181 0.215-0.132 0.68 0.065 1.034 0.438 0.896 0.948 1.819 1.68 2.116 1.68 0.138 0 0.809 0.63 1.491 1.4 0.681 0.77 1.433 1.4 1.669 1.4 0.237 0 0.655 0.36 0.93 0.8s0.768 0.8 1.096 0.8c0.329 0 0.597 0.27 0.597 0.6s0.142 0.6 0.316 0.6c0.286 0 1.215 0.756 5.033 4.094 0.688 0.601 1.476 1.096 1.751 1.1 0.275 3e-3 0.5 0.27 0.5 0.592s0.405 0.802 0.9 1.065c0.495 0.264 1.136 0.765 1.425 1.114 0.355 0.429 0.588 0.487 0.719 0.177 0.107-0.251 0.574-0.358 1.038-0.237 0.575 0.151 0.752 0.074 0.557-0.242-0.157-0.255-0.096-0.463 0.137-0.463s0.424-0.318 0.424-0.706 0.379-1.693 0.842-2.9c1.111-2.895 0.331-5.594-1.616-5.594-0.142 0-1.054-0.72-2.026-1.6s-1.904-1.6-2.07-1.6-0.855-0.54-1.53-1.2-1.38-1.2-1.567-1.2c-0.186 0-1.059-0.72-1.939-1.6s-1.801-1.6-2.047-1.6-0.447-0.18-0.447-0.4-0.264-0.4-0.586-0.4-0.787-0.375-1.032-0.834c-0.246-0.459-0.537-0.744-0.648-0.633-0.213 0.212-0.916-0.308-3.285-2.431-0.797-0.714-1.655-1.299-1.906-1.3-0.366-2e-3 -0.943-0.843-0.943-1.375 0-0.059 0.945 0.049 2.1 0.241 2.892 0.48 15.32-0.253 15.737-0.928 0.116-0.187 0.605-0.341 1.087-0.342 0.482-2e-3 1.383-0.267 2.002-0.59s1.609-0.659 2.2-0.747c0.591-0.087 1.025-0.375 0.964-0.64-0.06-0.264 0.063-0.374 0.273-0.244 0.561 0.347 4.836-1.489 4.836-2.077 1e-3 -0.275 0.177-0.5 0.392-0.5 1.098 0-1.55-3.556-2.671-3.587-0.264-7e-3 -0.624-0.257-0.8-0.555-0.63-1.066-3.699-2.658-5.125-2.658-0.795 0-1.508-0.228-1.619-0.519-0.11-0.286-0.864-0.564-1.676-0.618-0.811-0.055-1.572-0.256-1.69-0.446-0.117-0.191-1.46-0.457-2.982-0.591-1.523-0.135-2.964-0.407-3.202-0.605-0.239-0.198-4.347-0.359-9.13-0.359s-8.696-0.104-8.696-0.231v-0.831c0-0.33 0.135-0.555 0.3-0.5s0.352-0.028 0.416-0.184 1.594-1.789 3.4-3.63c1.806-1.84 3.949-4.086 4.761-4.992 2.658-2.962 7.78-1.903 10.414 2.154 0.159 0.246 0.834 0.673 1.5 0.948 0.665 0.276 1.209 0.689 1.209 0.919s0.117 0.301 0.26 0.158 0.674 0.187 1.181 0.733c0.506 0.546 1.244 1.054 1.639 1.127 1.111 0.208 2.92 1.157 2.92 1.531 0 0.185 0.431 0.336 0.957 0.336 0.527 0 1.053 0.25 1.17 0.555 0.118 0.305 0.902 0.65 1.743 0.765 0.842 0.115 2.79 0.526 4.33 0.912 3.048 0.766 13.213 1.048 15.8 0.438 0.77-0.181 2.12-0.485 3-0.675 6.384-1.378 8.21-3.366 5.445-5.926-2.61-2.415-3.784-3.269-4.495-3.269-0.413 0-0.75-0.176-0.75-0.39 0-0.215-0.799-0.754-1.776-1.199-0.976-0.445-1.887-0.989-2.023-1.21-0.137-0.221-0.868-0.401-1.625-0.401s-1.376-0.166-1.376-0.368c0-0.203-0.54-0.487-1.2-0.632s-1.2-0.388-1.2-0.54c0-0.323-4.112-1.225-7-1.536-3.422-0.367-4.375-1.144-1.782-1.452 1.166-0.138 2.306-0.436 2.531-0.661 0.226-0.226 0.804-0.411 1.285-0.411s1.39-0.269 2.02-0.598c0.63-0.328 1.641-0.598 2.246-0.6 0.605-1e-3 1.1-0.182 1.1-0.402s0.5-0.4 1.111-0.4 1.541-0.301 2.066-0.669c0.697-0.488 0.863-0.515 0.613-0.1-0.283 0.469-0.235 0.481 0.274 0.069 0.339-0.274 1.094-0.539 1.676-0.587 0.583-0.048 1.06-0.208 1.06-0.355 0-0.211 2.334-0.742 4.08-0.928 0.154-0.017 0.491-0.241 0.749-0.499s0.717-0.373 1.02-0.257c0.327 0.126 0.551-0.049 0.551-0.431 0-0.481 0.394-0.643 1.568-0.643 0.862 0 2.167-0.3 2.9-0.668 0.732-0.367 1.664-0.829 2.069-1.026 0.538-0.262 0.885-0.163 1.287 0.368 0.303 0.399 0.556 0.603 0.563 0.453s0.659 0.336 1.448 1.081c0.79 0.744 2.095 1.571 2.9 1.836 0.806 0.266 2.063 0.819 2.795 1.229 0.785 0.441 1.207 0.538 1.031 0.237-0.164-0.281 0.062-0.195 0.502 0.19s1.191 0.7 1.668 0.7c0.478 0 0.869 0.18 0.869 0.4s0.495 0.401 1.1 0.402c0.605 2e-3 1.601 0.264 2.213 0.584 0.751 0.391 1.025 0.423 0.841 0.097-0.197-0.35-0.123-0.345 0.267 0.017 0.297 0.275 0.942 0.5 1.435 0.5s1.01 0.183 1.148 0.407c0.138 0.223 0.427 0.298 0.641 0.165 0.215-0.132 0.607-0.067 0.873 0.146 0.667 0.534 11.877 0.388 12.882-0.168 0.942-0.522 3.209-1.342 4.545-1.646 1.452-0.33 4.25-3.34 4.362-4.693 0.053-0.636 0.365-1.567 0.695-2.069 0.329-0.503 0.598-1.528 0.598-2.279s0.233-1.558 0.517-1.794 0.562-1.104 0.618-1.93c0.055-0.825 0.295-1.734 0.532-2.02 0.311-0.375 0.302-0.519-0.032-0.519-0.312 0-0.345-0.228-0.102-0.7 0.199-0.385 0.491-1.42 0.65-2.3s0.497-1.86 0.753-2.177c0.373-0.464 0.347-0.511-0.136-0.241-0.488 0.273-0.507 0.235-0.1-0.203 0.297-0.32 0.5-1.63 0.5-3.226 0-1.794 0.166-2.742 0.5-2.852 0.564-0.188 0.983-13.063 0.464-14.241-0.16-0.363-0.262-0.795-0.228-0.96 0.035-0.165-0.116-0.3-0.336-0.3s-0.4-0.281-0.4-0.624-0.18-0.512-0.4-0.376-0.4-0.012-0.4-0.33c0-0.317-0.397-0.681-0.883-0.807-0.485-0.127-0.758-0.356-0.606-0.508 0.302-0.301-1.492-1.355-2.308-1.355-0.278 0-0.733-0.274-1.011-0.61-0.278-0.335-0.601-0.514-0.717-0.398s-0.604-0.047-1.085-0.362c-0.48-0.314-1.574-0.689-2.432-0.832-0.857-0.143-1.828-0.36-2.158-0.482-0.758-0.28-1.415-0.361-5.6-0.688-1.87-0.146-4.57-0.378-6-0.514-3.584-0.342-8.21-0.342-10.6-1e-3 -1.1 0.158-3.694 0.406-5.765 0.551l-3.764 0.265 0.925-0.925c0.753-0.753 1.339-0.92 3.163-0.902 1.232 0.012 2.42-0.096 2.64-0.24 0.444-0.29 0.691-0.318 3.672-0.403 1.238-0.035 2.313-0.3 2.672-0.659 0.42-0.42 1.447-0.6 3.428-0.6 1.556 0 2.829-0.14 2.829-0.311s1.35-0.74 3-1.263 3-1.103 3-1.288c0-0.186 0.347-0.338 0.771-0.338 0.425 0 1.042-0.27 1.372-0.6s0.7-0.6 0.822-0.6c0.389 0 4.422-2.542 4.729-2.98 0.162-0.231 0.297-0.27 0.3-0.086s1.036-0.671 2.294-1.9c1.259-1.229 2.429-2.234 2.6-2.234 0.172 0 0.312-0.24 0.312-0.532 0-0.293 0.45-0.774 1-1.068s1-0.753 1-1.019 0.261-0.699 0.58-0.964c1.073-0.891 1.623-3.28 0.879-3.823-0.356-0.26-0.557-0.563-0.448-0.672 0.11-0.109-1.316-0.181-3.168-0.16-1.851 0.021-3.283 0.173-3.181 0.338s-0.41 0.326-1.138 0.357c-2.484 0.107-4.004 0.276-5.064 0.565-0.583 0.158-1.51 0.355-2.06 0.436-2.172 0.322-2.474 0.414-2.734 0.835-0.149 0.241-1.259 0.488-2.468 0.55-1.209 0.063-2.436 0.348-2.727 0.635-0.29 0.287-0.875 0.522-1.3 0.522-0.424 0-0.771 0.216-0.771 0.48 0 0.364-0.12 0.36-0.497-0.017-0.317-0.317-0.353-0.599-0.1-0.78 0.508-0.362 1.352-1.681 1.655-2.583 0.13-0.385 0.386-0.7 0.57-0.7s0.652-0.669 1.04-1.487c0.835-1.759 1.908-2.913 2.708-2.913 0.317 0 0.673-0.155 0.79-0.346 0.118-0.19 1.491-0.436 3.053-0.548 1.561-0.112 3.041-0.406 3.29-0.655 0.248-0.248 0.827-0.451 1.286-0.451 0.46 0 1.531-0.354 2.38-0.787s1.725-0.675 1.946-0.538c0.228 0.141 0.279 0.049 0.117-0.213-0.187-0.304 0.07-0.462 0.751-0.462 0.57 0 1.14-0.27 1.266-0.6 0.127-0.33 0.494-0.6 0.816-0.6 0.621 0 4.237-2.331 4.462-2.877 0.074-0.178 0.376-0.323 0.672-0.323 0.699 0 3.46-2.601 3.121-2.94-0.244-0.245 0.479-0.423 1.204-0.297 0.181 0.031 0.229-0.106 0.106-0.304-0.122-0.199 0.359-0.991 1.071-1.761 1.483-1.605 1.923-2.246 3.141-4.583 0.483-0.926 1.03-1.59 1.215-1.476 0.185 0.115 0.337-0.258 0.337-0.828s0.27-1.14 0.6-1.266c0.342-0.132 0.6-0.728 0.6-1.388 0-0.636 0.14-1.157 0.311-1.157 0.489 0 1.696-5.196 1.692-7.286-5e-3 -2.901-1.936-3.305-5.974-1.249-0.535 0.272-1.101 0.414-1.258 0.317-0.158-0.098-0.39 0.092-0.517 0.42-0.126 0.329-0.535 0.598-0.91 0.598-0.374 0-1.775 0.556-3.112 1.236-3.561 1.81-4.182 2.176-5.212 3.072-0.513 0.446-1.307 0.929-1.766 1.075s-1.469 0.881-2.244 1.634c-0.776 0.753-1.41 1.26-1.41 1.127s-0.27-0.018-0.6 0.256c-0.907 0.753-0.42-0.964 1.063-3.742 0.307-0.575 0.277-0.672-0.133-0.431-0.292 0.171-0.215-0.05 0.17-0.49 0.404-0.462 0.7-1.444 0.7-2.323 0-1.704 0.855-2.719 3.582-4.252 0.89-0.5 1.618-1.056 1.618-1.236 0-0.179 0.161-0.326 0.359-0.326 0.94 0 8.041-6.94 8.041-7.858 0-0.298 0.177-0.542 0.392-0.542 0.216 0 0.506-0.452 0.645-1.005s0.467-1.138 0.728-1.3c0.421-0.261 2.635-4.575 2.635-5.135 0-0.119 0.27-0.487 0.6-0.817 0.355-0.355 0.6-1.333 0.6-2.395 0-1.095 0.156-1.699 0.4-1.548 0.234 0.145 0.4-0.269 0.4-0.996 0-0.684 0.246-1.73 0.546-2.324 0.383-0.758 0.532-2.571 0.5-6.08l-0.046-5-1.5-0.124c-1.167-0.097-1.5 0.02-1.5 0.523 0 0.357-0.164 0.547-0.365 0.422-0.522-0.322-8.061 7.326-11.611 11.779l-0.797 1-0.014-5.032c-0.013-4.965 0-5.04 0.987-5.568 0.55-0.294 1-0.685 1-0.868 0-0.182 0.27-0.332 0.6-0.332s0.6-0.27 0.6-0.6 0.135-0.601 0.3-0.602 1.015-0.991 1.888-2.2 1.728-2.198 1.9-2.198 0.312-0.274 0.312-0.608 0.45-1.321 1-2.192 1-1.836 1-2.143c0-0.308 0.27-0.783 0.6-1.057s0.6-0.994 0.6-1.6 0.263-1.731 0.584-2.5 0.488-1.495 0.371-1.612c-0.118-0.118 0.056-0.735 0.386-1.373 0.628-1.215 0.676-8.417 0.07-10.515-0.159-0.55-0.364-1.714-0.456-2.586s-0.344-1.763-0.561-1.98-0.394-1.065-0.394-1.885c0-0.821-0.27-1.762-0.6-2.092s-0.6-0.793-0.6-1.028c0-0.236-0.747-0.429-1.662-0.429-1.541 0-5.524 3.221-5.536 4.475-1e-3 0.152-0.521 0.844-1.155 1.538-1.015 1.111-2.421 3.617-3.808 6.787-0.724 1.654-1.839 2.159-1.839 0.833 0-0.421-0.17-0.826-0.379-0.9-0.208-0.073-0.421-0.988-0.474-2.033s-0.239-1.9-0.414-1.9-0.439-0.483-0.587-1.073c-0.148-0.591-0.511-1.536-0.805-2.1-0.847-1.623-0.659-2.585 0.659-3.363 0.66-0.39 1.2-0.986 1.2-1.325 0-0.338 0.328-1.093 0.73-1.677 1.332-1.939 2.456-4.447 2.551-5.693 0.052-0.676 0.224-1.31 0.383-1.409 0.159-0.098 0.413-1.434 0.564-2.969 0.152-1.535 0.387-2.791 0.524-2.791 0.313-1e-3 0.29-3.681-0.026-4.209-0.129-0.215-0.363-1.516-0.52-2.892-0.157-1.375-0.447-2.601-0.645-2.723-0.199-0.123-0.361-1.113-0.361-2.2 0-1.49-0.148-1.976-0.6-1.976-0.393 0-0.6-0.393-0.6-1.14 0-0.628-0.45-1.987-1-3.022-0.55-1.034-1-2.243-1-2.686s-0.424-1.378-0.943-2.079c-1.131-1.526-2.257-3.789-2.257-4.534 0-0.511-0.741-0.724-1.94-0.56-0.342 0.047-0.428-0.119-0.236-0.452 0.168-0.29-0.129-0.132-0.659 0.351-0.531 0.483-1.257 1.473-1.615 2.2-3.064 6.237-3.956 8.204-3.953 8.716 2e-3 0.327-0.424 1.497-0.945 2.6-0.854 1.808-1.291 3.162-2.18 6.755l-0.284 1.149-0.569-1.449c-0.312-0.797-0.805-1.449-1.094-1.449s-0.525-0.341-0.525-0.757c0-0.417-0.27-0.861-0.6-0.988-0.33-0.126-0.6-0.506-0.6-0.842 0-0.337-0.18-0.613-0.4-0.613s-0.4-0.23-0.4-0.511-0.54-1.102-1.2-1.825c-0.66-0.722-1.2-1.469-1.2-1.66 0-0.19-0.45-0.7-1-1.133-0.55-0.432-1-0.908-1-1.057s-0.27-0.541-0.6-0.871c-0.332-0.332-0.622-1.392-0.65-2.372-0.027-0.974-0.088-1.906-0.135-2.071-0.237-0.841-0.716-2.017-1.235-3.032-0.319-0.623-0.586-1.523-0.593-2-7e-3 -0.478-0.277-1.217-0.6-1.644-0.323-0.428-0.587-1.029-0.587-1.337 0-0.798-1.432-2.516-1.811-2.173-0.175 0.157-0.201 0.083-0.059-0.166 0.141-0.248-0.163-0.878-0.677-1.4-0.514-0.521-1.128-1.315-1.363-1.764s-0.937-1.078-1.559-1.399-1.275-0.809-1.451-1.084c-0.176-0.276-0.499-0.501-0.719-0.501s-0.796-0.426-1.28-0.948c-0.485-0.521-1.466-1.075-2.181-1.231-0.715-0.157-1.3-0.45-1.3-0.653 0-0.202-0.36-0.368-0.8-0.368s-0.8-0.178-0.8-0.395c0-0.218-0.72-0.511-1.6-0.651-0.88-0.141-1.6-0.39-1.6-0.554s-0.72-0.413-1.6-0.554c-0.88-0.14-1.6-0.415-1.6-0.61s-1.575-0.328-3.5-0.296l-3.5 0.06 0.026 2c0.039 2.952 0.299 5.03 0.658 5.252 0.174 0.107 0.316 0.832 0.316 1.61s0.249 1.892 0.554 2.476c0.304 0.584 1.013 2.052 1.574 3.262 1.261 2.718 2.195 3.942 5.34 7 2.997 2.913 3.32 3.163 4.317 3.337 0.432 0.076 1.147 0.391 1.589 0.7 0.442 0.31 1.111 0.563 1.486 0.563 0.376 0 0.921 0.236 1.211 0.524 0.291 0.289 1.609 0.572 2.929 0.63 1.32 0.057 2.571 0.271 2.78 0.475 0.554 0.541 1.523 0.461 1.178-0.097-0.159-0.258 0.179-0.123 0.752 0.3 0.572 0.422 1.277 1.218 1.565 1.768s0.749 1.144 1.024 1.32c0.276 0.176 0.501 0.549 0.501 0.83s0.45 0.933 1 1.45 1 1.268 1 1.67c0 0.401 0.27 0.73 0.6 0.73s0.6 0.206 0.6 0.457 0.99 2.025 2.2 3.943 2.2 3.746 2.2 4.063 0.216 0.793 0.48 1.057c0.72 0.72-0.528 0.631-1.504-0.107-0.427-0.323-1.083-0.593-1.458-0.6s-1.346-0.463-2.156-1.013c-0.811-0.55-1.764-1.001-2.118-1.002-0.354-2e-3 -1.16-0.272-1.79-0.6-0.63-0.329-1.62-0.604-2.2-0.611s-1.403-0.277-1.83-0.6c-0.428-0.323-1.272-0.587-1.877-0.587s-1.211-0.18-1.347-0.4c-0.355-0.575-4.168-0.494-4.729 0.1-0.488 0.518-0.629 1.55-0.26 1.9 0.116 0.11 0.548 0.965 0.961 1.9 0.412 0.935 0.902 1.7 1.089 1.7 0.186 0 0.339 0.366 0.339 0.813 0 0.446 0.27 0.916 0.6 1.042 0.33 0.127 0.6 0.561 0.6 0.964 0 0.404 0.183 0.847 0.406 0.985 0.223 0.137 0.753 0.913 1.178 1.723s1.412 2.136 2.194 2.946c0.782 0.811 1.422 1.574 1.422 1.697s0.54 0.739 1.2 1.37 1.2 1.34 1.2 1.576c0 0.237 0.365 0.546 0.811 0.687 0.446 0.142 1.096 0.694 1.446 1.227 0.349 0.534 0.806 0.97 1.016 0.97 0.371 0 2.798 1.7 3.856 2.7 0.476 0.451 1.364 0.675 2.171 0.547 0.165-0.026 0.3 0.201 0.3 0.504 0 0.304 0.585 0.765 1.3 1.025s1.81 0.732 2.432 1.048c0.623 0.317 1.456 0.576 1.852 0.576 0.395 0 1.365 0.27 2.154 0.6 0.79 0.33 1.982 0.6 2.649 0.6 1.086 0 1.295 0.187 1.179 1.055-0.019 0.141 0.167 0.38 0.414 0.533 0.247 0.152 0.56 0.982 0.696 1.844 0.136 0.863 0.379 1.658 0.539 1.768s0.402 1.001 0.537 1.979c0.136 0.979 0.427 1.96 0.647 2.18 0.221 0.221 0.401 0.869 0.401 1.441s0.195 1.235 0.434 1.474c0.238 0.238 0.373 0.831 0.3 1.318l-0.134 0.883-0.961-0.837c-0.529-0.461-1.173-0.838-1.433-0.838-0.259 0-0.712-0.45-1.006-1s-0.785-1-1.089-1c-0.305 0-1.13-0.54-1.833-1.199s-1.863-1.478-2.578-1.819-1.3-0.762-1.3-0.935c0-0.359-3.975-2.447-4.657-2.447-0.245 0-0.669-0.27-0.943-0.6s-0.821-0.6-1.216-0.6c-0.394 0-0.781-0.19-0.858-0.422-0.13-0.39-0.981-0.673-2.25-0.747-0.288-0.017-0.412-0.211-0.276-0.431 0.148-0.24-0.369-0.4-1.296-0.4-0.849 0-1.724-0.18-1.944-0.4-2.055-2.055-5.088-0.015-4.758 3.2 0.124 1.21 0.258 2.515 0.297 2.9 0.04 0.385 0.206 0.7 0.369 0.7 0.162 0 0.414 0.63 0.558 1.4 0.145 0.77 0.423 1.4 0.619 1.4 0.195 0 0.355 0.333 0.355 0.74 0 0.408 0.45 1.587 1 2.622 0.55 1.034 1 2.141 1 2.459 0 0.319 0.27 0.579 0.6 0.579s0.6 0.317 0.6 0.704 0.45 1.189 1 1.783c0.55 0.593 1 1.17 1 1.282s0.495 0.73 1.1 1.374c0.605 0.643 1.525 1.729 2.045 2.413s1.17 1.244 1.444 1.244 0.837 0.45 1.25 1 0.978 1 1.256 1 0.505 0.177 0.505 0.392c0 0.216 0.45 0.506 1 0.644s1 0.411 1 0.607c0 0.197 0.251 0.357 0.557 0.357 0.307 0 0.665 0.281 0.797 0.625s0.378 0.541 0.545 0.437c0.168-0.104 1.012 0.155 1.875 0.575s1.976 0.763 2.474 0.763 1.008 0.167 1.135 0.372c0.236 0.383 4.394 1.065 5.357 0.879 0.297-0.058 0.423 0.085 0.279 0.318-0.158 0.256-0.017 0.328 0.36 0.184 0.548-0.211 0.617 0.624 0.587 7.104l-0.033 7.343-0.782-1.7c-0.43-0.935-0.954-1.7-1.166-1.7s-0.385-0.335-0.385-0.744-0.45-1.082-1-1.495-1-0.886-1-1.051c0-0.533-1.362-1.91-1.889-1.91-0.281 0-0.511-0.366-0.511-0.813 0-0.446-0.312-0.932-0.693-1.078s-1.363-0.95-2.184-1.787c-0.82-0.837-1.659-1.522-1.864-1.522-0.206 0-0.477-0.27-0.604-0.6-0.126-0.33-0.486-0.6-0.8-0.6-0.313 0-0.673-0.27-0.8-0.6-0.126-0.33-0.506-0.6-0.842-0.6-0.337 0-0.613-0.18-0.613-0.4s-0.27-0.4-0.6-0.4-0.6-0.162-0.6-0.361c0-0.198-0.54-0.549-1.2-0.779s-1.2-0.608-1.2-0.839c0-0.232-0.245-0.421-0.544-0.421s-1.207-0.45-2.018-1c-1.456-0.988-5.392-1.497-4.855-0.628 0.126 0.205 0.038 0.491-0.196 0.636-0.644 0.398-0.438 10.141 0.236 11.175 0.293 0.449 0.575 1.762 0.626 2.917 0.052 1.155 0.252 2.1 0.446 2.1s0.249 0.168 0.122 0.372c-0.126 0.205-0.047 0.486 0.176 0.624 0.224 0.138 0.407 0.601 0.407 1.028s0.18 0.776 0.4 0.776 0.4 0.37 0.4 0.822c0 1.394 4.39 8.778 5.219 8.778 0.21 0 0.381 0.332 0.381 0.738s0.36 1.064 0.8 1.462 0.8 0.578 0.8 0.4c0-0.179 0.405 0.118 0.9 0.658 0.961 1.049 3.686 3.142 4.09 3.142 0.134 0 0.641 0.38 1.127 0.843 0.874 0.835 3.004 1.812 3.583 1.644 0.165-0.048 0.3 0.093 0.3 0.313s0.338 0.4 0.751 0.4c1.276 0 1.715 0.926 1.304 2.755-0.204 0.905-0.271 1.645-0.15 1.645 0.12 0-0.107 0.36-0.505 0.8s-0.585 0.8-0.416 0.8 0.017 0.444-0.338 0.986-0.646 1.518-0.646 2.168c0 0.649-0.263 1.691-0.585 2.314-0.322 0.622-0.897 1.897-1.277 2.832-0.795 1.953-1.738 2.261-1.738 0.567 0-0.624-0.127-1.26-0.282-1.415s-0.346-0.77-0.424-1.367-0.401-1.484-0.718-1.971-0.576-1.166-0.576-1.508-0.45-1.335-1-2.206-1-1.849-1-2.172c0-0.324-0.315-0.772-0.7-0.996s-0.534-0.413-0.33-0.42c0.203-7e-3 -0.053-0.462-0.57-1.012s-0.818-1-0.67-1c0.33 0-0.129-0.522-4.043-4.6-5.944-6.193-8.487-6.293-8.487-0.335 0 1.368-0.169 2.592-0.375 2.719-0.206 0.128-0.382 0.543-0.392 0.924-0.151 5.957-0.034 8.335 0.449 9.106 0.142 0.227 0.299 1.757 0.349 3.4 0.05 1.642 0.226 3.076 0.391 3.186 0.164 0.11 0.393 0.794 0.507 1.521 0.114 0.726 0.402 1.555 0.639 1.84 0.237 0.286 0.471 0.997 0.519 1.579 0.048 0.583 0.318 1.06 0.6 1.06s0.513 0.445 0.513 0.988c0 0.985 2.263 4.612 2.877 4.612 0.178 0 0.323 0.188 0.323 0.417 0 0.496 0.645 1.319 1.969 2.511 0.532 0.479 1.297 1.187 1.7 1.572 0.402 0.385 0.956 0.703 1.231 0.706 0.351 4e-3 0.367 0.094 0.054 0.3-0.245 0.162-0.559 0.654-0.698 1.094-0.138 0.44-0.702 1.323-1.254 1.962-0.551 0.639-1.002 1.404-1.002 1.7s-0.177 0.538-0.392 0.538c-0.216 0-0.506 0.45-0.644 1s-0.411 1-0.607 1c-0.197 0-0.357 0.189-0.357 0.419 0 0.231-0.45 0.836-1 1.346s-1 1.131-1 1.381-0.191 0.454-0.424 0.454-0.312 0.18-0.176 0.4 0.057 0.4-0.176 0.4-0.424 0.281-0.424 0.624-0.167 0.52-0.371 0.394-0.487 0.136-0.629 0.582-0.411 0.717-0.599 0.601c-0.187-0.116-0.423 0.106-0.524 0.494s-0.236-2.355-0.299-6.095c-0.108-6.414-0.162-7.576-0.385-8.3-0.147-0.475-0.238-0.819-0.557-2.1-0.164-0.66-0.466-1.56-0.671-2s-0.41-1.291-0.455-1.89c-0.046-0.6-0.314-1.179-0.596-1.288-0.283-0.108-0.514-0.473-0.514-0.809 0-0.337-0.168-0.613-0.373-0.613s-0.5-0.405-0.656-0.9c-0.155-0.495-0.707-1.296-1.227-1.781-0.519-0.484-0.945-1.024-0.947-1.2-2e-3 -0.175-0.485-0.543-1.074-0.816-1.309-0.608-2.923 0.231-2.923 1.519 0 0.442-0.27 0.907-0.6 1.033-0.343 0.132-0.6 0.729-0.6 1.393 0 1.163-0.663 2.71-1.382 3.226-0.211 0.151-0.451 0.871-0.534 1.6s-0.336 1.548-0.563 1.821c-0.226 0.272-0.491 1.443-0.589 2.6-0.098 1.158-0.335 2.645-0.527 3.305-1.005 3.453-0.756 11.103 0.57 17.6 0.09 0.44 0.178 0.946 0.194 1.124 0.017 0.178 0.211 0.212 0.431 0.076 0.237-0.146 0.4 0.313 0.4 1.127 0 0.756 0.27 1.599 0.6 1.873s0.6 0.746 0.6 1.049 0.18 0.551 0.4 0.551c0.694 0 0.433 1.567-0.4 2.4-0.44 0.44-0.903 0.8-1.029 0.8-0.396 0-1.371 1.124-1.371 1.581 0 0.242-0.544 0.548-1.208 0.681-0.665 0.133-1.306 0.398-1.424 0.59-0.118 0.191-0.644 0.348-1.168 0.348s-1.066 0.183-1.204 0.407c-0.138 0.223-0.406 0.31-0.596 0.193s-0.458-0.03-0.596 0.193c-0.138 0.224-0.759 0.407-1.379 0.407s-1.351 0.27-1.625 0.6-0.905 0.6-1.403 0.6-1.408 0.261-2.023 0.58c-0.614 0.318-1.246 0.499-1.403 0.402-0.158-0.098-0.39 0.092-0.517 0.42-0.128 0.336-0.726 0.598-1.361 0.598-0.623 0-1.304 0.169-1.513 0.376s-0.891 0.468-1.515 0.58-1.344 0.369-1.6 0.572c-0.256 0.202-1.145 0.49-1.976 0.64s-1.406 0.443-1.277 0.652c0.13 0.209-0.321 0.38-1.001 0.38s-1.883 0.27-2.673 0.6c-0.789 0.33-1.849 0.6-2.354 0.6-0.504 0-0.977 0.174-1.051 0.387-0.073 0.213-0.728 0.432-1.456 0.487s-1.515 0.331-1.749 0.613-0.793 0.513-1.242 0.513c-0.886 0-4.891 1.088-5.926 1.61-0.352 0.177-1.522 0.364-2.6 0.415s-2.359 0.336-2.846 0.634-1.666 0.541-2.62 0.541-1.907 0.173-2.119 0.385-2.183 0.507-4.38 0.654c-2.197 0.148-4.226 0.452-4.508 0.675-0.728 0.575-24.07 0.536-25.105-0.042-0.43-0.24-2.537-0.551-4.682-0.692-2.145-0.14-3.9-0.418-3.9-0.617 0-0.2-0.795-0.363-1.767-0.363-0.971 0-1.828-0.185-1.903-0.411-0.076-0.226-1.216-0.516-2.534-0.645-1.318-0.128-2.486-0.369-2.596-0.534-0.11-0.166-1.235-0.429-2.5-0.585-1.265-0.155-2.3-0.45-2.3-0.654s-0.726-0.371-1.613-0.371c-0.947 0-1.694-0.213-1.81-0.516-0.109-0.283-0.753-0.558-1.432-0.609-0.679-0.052-1.529-0.246-1.89-0.432-0.36-0.186-1.33-0.46-2.155-0.608-0.825-0.149-1.5-0.405-1.5-0.568s-0.522-0.337-1.161-0.385c-0.638-0.049-1.673-0.356-2.3-0.683-0.626-0.327-1.544-0.595-2.039-0.597-0.495-1e-3 -0.9-0.162-0.9-0.357 0-0.196-0.63-0.474-1.4-0.619-0.77-0.144-1.4-0.434-1.4-0.644s-0.726-0.382-1.613-0.382c-1.064 0-1.69-0.204-1.842-0.6-0.127-0.33-0.651-0.6-1.164-0.6-0.514 0-1.045-0.18-1.181-0.4s-0.652-0.4-1.147-0.4-1.249-0.264-1.677-0.587c-0.427-0.323-1.339-0.593-2.027-0.6s-1.475-0.283-1.749-0.613-1.016-0.6-1.649-0.6-1.151-0.157-1.151-0.348c0-0.192-0.9-0.468-2-0.614s-2-0.439-2-0.652c0-0.212-0.51-0.386-1.133-0.386-0.624 0-1.269-0.135-1.434-0.3s-0.42-0.316-0.566-0.335c-1.894-0.245-3.761-2.267-3.274-3.545 0.422-1.111 1.204-2.55 1.858-3.42 0.248-0.33 0.549-1.14 0.668-1.8 0.118-0.66 0.426-2.01 0.684-3 0.845-3.251 1.429-9.671 0.972-10.695-0.173-0.388-0.371-1.515-0.441-2.505-0.246-3.516-0.642-6.02-0.986-6.232-0.191-0.118-0.349-0.7-0.35-1.292-2e-3 -0.592-0.272-1.592-0.6-2.222-0.329-0.63-0.598-1.474-0.598-1.876s-0.175-0.839-0.389-0.971c-0.214-0.133-0.584-0.963-0.821-1.845-0.238-0.882-0.783-1.955-1.211-2.383s-0.779-0.959-0.779-1.179-0.281-0.4-0.624-0.4-0.522-0.163-0.399-0.363c0.416-0.673-1.347 0.044-2.266 0.921-1.533 1.466-3.111 3.566-3.111 4.143 0 0.3-0.145 0.456-0.323 0.346-0.178-0.109-0.364 0.555-0.415 1.477-0.05 0.922-0.354 1.876-0.676 2.12-0.323 0.244-0.586 0.883-0.586 1.42s-0.167 1.147-0.372 1.356c-0.557 0.569-1.358 11.591-1.056 14.539 0.294 2.869-0.148 2.937-1.597 0.247-0.416-0.773-0.896-1.406-1.066-1.406s-0.309-0.27-0.309-0.6-0.225-0.602-0.5-0.605c-0.275-2e-3 -0.844-0.722-1.264-1.6-0.421-0.877-0.916-1.595-1.1-1.595-0.185 0-0.336-0.27-0.336-0.6s-0.139-0.6-0.309-0.6-0.665-0.662-1.1-1.471c-0.435-0.808-0.971-1.672-1.191-1.918-1.599-1.79-1.592-4.211 0.013-4.211 0.384 0 2.587-2.417 2.587-2.837 0-0.226 0.18-0.299 0.401-0.163 0.22 0.137 0.575-0.168 0.788-0.676 0.214-0.508 0.931-1.824 1.594-2.924 0.664-1.1 1.315-2.27 1.448-2.6s0.386-0.96 0.563-1.4c1.027-2.556 1.608-4.569 1.619-5.613 7e-3 -0.653 0.285-1.547 0.618-1.987 0.783-1.033 0.788-18.541 6e-3 -18.841-0.258-0.099-0.495-0.537-0.528-0.973-0.146-1.942-2.047-2.551-3.072-0.986-0.361 0.55-0.908 1-1.217 1s-0.89 0.406-1.291 0.902-1.224 1.22-1.829 1.609-1.1 0.881-1.1 1.094c0 0.607-1.307 1.976-1.671 1.751-0.181-0.112-0.329 0.173-0.329 0.633s-0.27 0.94-0.6 1.066c-0.33 0.127-0.6 0.416-0.6 0.642s-0.45 0.828-1 1.338-1 1.295-1 1.746c0 0.45-0.139 0.819-0.309 0.819-0.445 0-2.802 4.858-3.007 6.2-0.068 0.44-0.339 1.193-0.604 1.674-0.264 0.48-0.48 1.258-0.48 1.728 0 1.761-1.805 2.309-1.971 0.598-0.102-1.055-0.819-3.026-1.866-5.132-0.31-0.623-0.563-1.558-0.563-2.077s-0.17-1.049-0.377-1.177-0.5-1.083-0.65-2.123c-0.151-1.04-0.453-2.116-0.672-2.391-0.552-0.692 0.346-1.7 1.515-1.7 0.504 0 0.977-0.135 1.051-0.3 0.073-0.165 0.943-0.712 1.933-1.215 2.39-1.215 3.339-1.802 3.694-2.285 0.162-0.22 0.297-0.286 0.3-0.146s0.671-0.355 1.484-1.1 1.713-1.354 2-1.354 0.522-0.204 0.522-0.454 0.45-0.871 1-1.381 1-1.072 1-1.25 0.45-0.808 1-1.402c0.55-0.593 1-1.266 1-1.496 0-0.229 0.177-0.417 0.392-0.417 0.216 0 0.51-0.466 0.653-1.036s0.686-1.496 1.207-2.058c0.522-0.563 0.948-1.443 0.948-1.956 0-0.938 0.899-3.683 1.676-5.119 0.49-0.904 1.106-7.612 0.805-8.763-0.139-0.534-0.056-0.699 0.256-0.507 0.328 0.203 0.463-0.312 0.463-1.761s-0.135-1.964-0.463-1.761c-0.32 0.198-0.39 7e-3 -0.226-0.619 0.615-2.355-2.135-3.939-3.854-2.22-0.33 0.33-0.755 0.6-0.944 0.6-0.674 0-3.277 1.502-3.031 1.749 0.138 0.138-0.062 0.251-0.444 0.251s-0.946 0.225-1.253 0.5c-1.272 1.141-2.945 2.243-3.885 2.558-0.385 0.13-0.7 0.4-0.7 0.601s-0.243 0.459-0.54 0.573c-0.67 0.258-6.659 6.082-6.662 6.479-1e-3 0.159-0.617 0.959-1.369 1.778-0.753 0.819-1.49 1.872-1.638 2.34-0.244 0.768-1.56 2.371-1.947 2.371-0.086 0-0.074-0.612 0.027-1.36 0.101-0.747-9e-3 -1.478-0.244-1.623-0.646-0.4-0.577-10.199 0.073-10.278 0.275-0.033 0.68-0.083 0.9-0.11 0.22-0.028 0.58-0.16 0.8-0.294s1.525-0.372 2.901-0.529c1.375-0.157 2.601-0.447 2.723-0.645 0.123-0.199 0.65-0.361 1.171-0.361s1.218-0.27 1.548-0.6 0.778-0.6 0.996-0.6c0.426 0 2.93-1.251 3.261-1.629 0.11-0.126 0.47-0.358 0.8-0.516 1.59-0.759 2.477-1.463 4.743-3.765 1.348-1.369 2.633-2.49 2.854-2.49 0.222 0 0.403-0.27 0.403-0.6s0.18-0.6 0.4-0.6 0.4-0.242 0.4-0.538 0.356-0.86 0.791-1.253c0.434-0.394 0.677-0.9 0.538-1.124-0.14-0.226-0.057-0.288 0.186-0.138 0.26 0.161 0.703-0.343 1.088-1.238 0.358-0.83 1.178-2.544 1.823-3.808 0.646-1.265 1.174-2.624 1.174-3.02 0-0.397 0.175-0.896 0.389-1.11 0.213-0.213 0.447-0.772 0.518-1.241 0.072-0.468 0.319-1.095 0.55-1.391 0.652-0.837 0.71-5.187 0.075-5.59-0.707-0.448-3.412-0.441-4.258 0.011-0.371 0.198-1.304 0.415-2.074 0.482-0.77 0.068-1.755 0.356-2.189 0.64-0.434 0.285-1.229 0.518-1.767 0.518-0.537 0-0.864 0.113-0.726 0.251 0.238 0.238-2.346 1.749-2.991 1.749-0.272 0-3.829 2.302-4.327 2.8-0.11 0.11-0.891 0.552-1.736 0.982-0.844 0.43-1.86 1.195-2.257 1.7s-1.089 0.918-1.538 0.918c-0.474 0-0.925 0.348-1.079 0.83-0.144 0.457-0.357 0.737-0.471 0.622-0.115-0.115-0.774 0.321-1.464 0.968l-1.255 1.177-0.125-1.869c-0.091-1.373 0.041-1.961 0.5-2.218 0.375-0.21 0.625-0.892 0.625-1.706 0-0.746 0.18-1.468 0.4-1.604s0.401-0.642 0.402-1.124c2e-3 -0.482 0.272-1.392 0.6-2.022 0.329-0.63 0.598-1.646 0.598-2.257 0-1.188 0.579-1.588 2.333-1.611 0.587-8e-3 1.517-0.272 2.067-0.586s1.384-0.578 1.854-0.586 1.37-0.283 2-0.612c0.63-0.328 1.461-0.598 1.846-0.6 0.385-1e-3 0.7-0.162 0.7-0.359 0-0.196 0.45-0.469 1-0.607s1-0.428 1-0.644c0-0.215 0.317-0.392 0.704-0.392s1.189-0.45 1.783-1c0.593-0.55 1.257-1 1.475-1 0.219 0 1.255-0.81 2.303-1.8s2.058-1.8 2.244-1.8 0.227-0.18 0.091-0.4 0.033-0.4 0.376-0.4 0.624-0.3 0.624-0.667c0-0.366 0.105-0.561 0.233-0.433 0.285 0.285 1.767-1.142 1.767-1.7 0-0.22 0.27-0.4 0.6-0.4 0.373 0 0.6-0.378 0.6-1s0.227-1 0.6-1c0.33 0 0.6-0.27 0.6-0.6s0.18-0.6 0.4-0.6 0.4-0.251 0.4-0.557c0-0.307 0.27-0.661 0.6-0.788 0.33-0.126 0.6-0.596 0.6-1.042 0-0.447 0.157-0.813 0.35-0.813 0.689 0 4.144-7.474 3.863-8.359-0.288-0.906-5.013-1.322-5.013-0.441 0 0.22-0.5 0.4-1.111 0.4s-1.466 0.23-1.9 0.512-1.29 0.565-1.902 0.63-1.602 0.374-2.2 0.686-1.402 0.568-1.787 0.57c-0.385 1e-3 -0.7 0.182-0.7 0.402s-0.366 0.4-0.813 0.4c-0.446 0-0.916 0.27-1.042 0.6-0.151 0.393-0.775 0.6-1.811 0.6-0.921 0-1.481 0.162-1.341 0.388 0.132 0.214-0.218 0.503-0.777 0.644-0.559 0.14-1.016 0.451-1.016 0.691 0 0.284-0.174 0.263-0.497-0.06-0.343-0.343-0.364-0.584-0.07-0.78 0.235-0.155 0.774-0.91 1.197-1.676 0.424-0.766 0.995-1.634 1.27-1.928 0.275-0.295 0.5-0.711 0.5-0.925s0.45-0.874 1-1.467c0.55-0.594 1-1.376 1-1.74s0.27-0.765 0.6-0.892c0.33-0.126 0.6-0.506 0.6-0.842 0-0.337 0.18-0.613 0.4-0.613s0.4-0.227 0.4-0.504 0.45-0.989 1-1.583c0.55-0.593 1-1.259 1-1.48s0.394-0.769 0.875-1.217c0.482-0.449 0.745-0.816 0.585-0.816s0.057-0.374 0.483-0.831c0.801-0.859 1.408-1.028 5.457-1.511 1.32-0.158 2.793-0.506 3.274-0.773 0.48-0.267 1.223-0.485 1.651-0.485 0.427 0 1.001-0.27 1.275-0.6s0.821-0.6 1.215-0.6 1.137-0.352 1.651-0.783c0.514-0.43 1.778-1.491 2.81-2.357 1.031-0.867 1.766-1.685 1.633-1.818s-0.032-0.242 0.224-0.242c0.257 0 0.467-0.281 0.467-0.624s0.175-0.515 0.388-0.383c0.214 0.132 0.513-0.257 0.666-0.865 0.152-0.607 0.697-1.558 1.211-2.112s0.935-1.42 0.935-1.924c0-0.505 0.27-1.021 0.6-1.147 0.33-0.127 0.6-0.651 0.6-1.164 0-0.514 0.17-1.039 0.377-1.167s0.5-1.488 0.651-3.023c0.152-1.535 0.409-2.791 0.573-2.791s0.276-1.035 0.248-2.3l-0.049-2.3-3.4-0.041c-2.312-0.028-3.784 0.153-4.6 0.565m92.6 5.635c11.907 1.982 14.434 2.558 18.1 4.127 2.582 1.104 2.525 1.978-0.2 3.037-13.392 5.205-42.211 6.772-62.3 3.388-9.079-1.529-15.234-3.507-15.519-4.987-0.146-0.756 4.504-2.8 7.919-3.48 7.187-1.432 15.123-2.655 19.4-2.992 6.318-0.496 27.751 0.1 32.6 0.907m-20.6 18.838c-67.365 0.191-72.967 0.286-72.383 1.231 0.127 0.204 0.085 0.372-0.093 0.372s-0.324 22.663-0.324 50.362 0.096 50.302 0.214 50.229 0.242 0.17 0.274 0.538c0.257 2.871 0.444 3.782 0.826 4.018 0.242 0.149 0.483 1.116 0.537 2.148 0.057 1.104 0.313 1.959 0.623 2.078 0.289 0.111 0.526 0.575 0.526 1.032 0 0.456 0.45 1.315 1 1.908 0.55 0.594 1 1.355 1 1.693 0 0.664 3.332 3.994 3.996 3.994 0.222 0 0.359 0.163 0.304 0.362-0.111 0.402 3.061 2.838 3.697 2.838 0.221 0 0.403 0.27 0.403 0.6s0.27 0.6 0.6 0.6 0.6 0.18 0.6 0.4 0.201 0.4 0.447 0.4 1.101 0.546 1.9 1.214c2.285 1.909 2.395 1.986 2.836 1.986 0.229 0 0.417 0.135 0.417 0.3 1e-3 0.165 0.863 0.784 1.917 1.376 1.053 0.592 2.251 1.447 2.661 1.9s0.988 0.824 1.284 0.824 0.538 0.168 0.538 0.373 0.405 0.5 0.9 0.656c0.495 0.155 1.296 0.707 1.781 1.227 0.484 0.519 1.189 0.944 1.567 0.944 0.377 0 0.576 0.109 0.442 0.243-0.256 0.256 3.534 2.957 4.15 2.957 0.198 0 0.36 0.145 0.36 0.323 0 0.392 3.465 2.877 4.012 2.877 0.213 0 0.388 0.144 0.388 0.319 0 0.176 1.08 1.007 2.4 1.848s2.4 1.688 2.4 1.881c0 0.194 0.278 0.352 0.618 0.352s1.068 0.45 1.618 1 1.253 1 1.562 1 0.706 0.226 0.882 0.501c0.438 0.687 3.452 2.699 4.042 2.699 0.263 0 0.478 0.167 0.478 0.372 0 0.416 3.428 2.828 4.02 2.828 0.209 0 0.38 0.141 0.38 0.314 0 0.172 0.585 0.657 1.3 1.077s1.503 0.954 1.751 1.187c0.248 0.232 0.854 0.692 1.347 1.022s1.594 1.095 2.446 1.7 1.665 1.1 1.807 1.1c0.141 0 0.678 0.454 1.193 1.01 0.514 0.555 1.024 0.96 1.133 0.9 0.108-0.061 0.565 0.205 1.015 0.59 1.044 0.894 4.491 0.963 5.204 0.104 0.272-0.327 0.622-0.516 0.778-0.42s0.573-0.131 0.927-0.504c1.028-1.087 1.834-1.68 2.282-1.68 0.229 0 0.732-0.288 1.117-0.639 1.557-1.422 5.017-3.761 5.564-3.761 0.321 0 0.485-0.16 0.364-0.355-0.12-0.195 0.157-0.452 0.617-0.573 0.459-0.12 0.717-0.41 0.572-0.645-0.234-0.378 0.577-0.627 1.513-0.464 0.181 0.031 0.226-0.11 0.1-0.314s0.297-0.554 0.939-0.778c0.643-0.224 1.369-0.782 1.614-1.239 0.245-0.458 0.78-0.832 1.188-0.832 0.409 0 0.851-0.281 0.983-0.625s0.403-0.525 0.601-0.403c0.199 0.123 0.464-0.046 0.591-0.374 0.126-0.329 0.461-0.598 0.746-0.598 0.284 0 1.001-0.45 1.595-1 0.593-0.55 1.238-1 1.434-1s0.743-0.315 1.215-0.7 1.696-1.33 2.719-2.1c1.022-0.77 2.164-1.67 2.537-2 0.885-0.783 2.012-1.515 3.008-1.955 0.44-0.194 1.143-0.734 1.562-1.199s1.094-0.846 1.5-0.846 0.693-0.214 0.638-0.476 0.24-0.55 0.656-0.64c0.416-0.091 1.136-0.551 1.6-1.024s1.474-1.206 2.244-1.63c0.77-0.423 1.49-0.885 1.6-1.026s1.1-0.863 2.2-1.604 2.09-1.449 2.2-1.574c0.348-0.394 1.774-1.24 2.5-1.484 0.385-0.13 0.7-0.484 0.7-0.789 0-0.304 0.27-0.553 0.6-0.553s0.6-0.18 0.6-0.4 0.251-0.4 0.558-0.4c0.306 0 1.135-0.54 1.842-1.2s1.541-1.2 1.855-1.2c0.313 0 0.674-0.27 0.8-0.6 0.127-0.33 0.4-0.6 0.606-0.6s0.825-0.45 1.375-1 1.237-1 1.526-1 0.864-0.45 1.277-1 0.978-1 1.256-1 0.505-0.199 0.505-0.442c0-0.244 0.432-0.783 0.961-1.199 1.151-0.905 3.439-4.837 3.439-5.91 0-0.42 0.27-0.867 0.6-0.994 0.347-0.133 0.6-0.731 0.6-1.419 0-0.654 0.156-1.285 0.347-1.404 0.192-0.118 0.464-0.938 0.605-1.823 0.142-0.885 0.39-1.609 0.553-1.609 0.334 0 0.2-103.51-0.135-104.05-0.12-0.193-0.577-0.351-1.017-0.351s-0.689-0.18-0.553-0.4 0.192-0.356 0.124-0.303-32.344 0.188-71.724 0.3m66.506 18.976c0.083 9.312-6e-3 12.044-0.4 12.294-1.284 0.815-131.05 0.38-131.49-0.441-0.621-1.16-0.559-22.921 0.067-23.547 0.372-0.372 15.394-0.458 66.1-0.38l65.619 0.101 0.106 11.973m-118.12-10.088c-0.112 0.292-0.155 4.937-0.096 10.323l0.107 9.792h4l0.102-2.6c0.191-4.851 1.172-5.817 2.944-2.9 0.501 0.825 1.602 2.445 2.445 3.6l1.534 2.1h2.388c3.442 0 3.316-0.402-2.746-8.771-1.727-2.384-1.681-2.547 1.737-6.058 3.188-3.276 3.35-3.804 1.615-5.258-1.285-1.077-1.584-0.922-5.185 2.687-4.405 4.415-4.508 4.398-4.731-0.8l-0.103-2.4-1.904-0.122c-1.303-0.084-1.968 0.045-2.107 0.407m38.511-0.209c-1.018 0.266-0.869 1.316 0.65 4.603 1.973 4.266 4.402 9.786 5.47 12.427 2.264 5.6 3.084 5.261 6.561-2.706 1.247-2.86 2.695-6.1 3.217-7.2 2.993-6.31 2.961-7.758-0.158-7.252-1.563 0.254-2.447 1.186-3.222 3.398-0.602 1.715-1.16 3.084-2.448 5.997-1.133 2.564-1.305 2.421-3.492-2.917-2.779-6.784-3.235-7.224-6.578-6.35m44.303 0.119c-0.365 0.591-1.266 4.204-2.209 8.861-0.462 2.279-1.202 5.626-1.645 7.437-0.946 3.867-0.86 4.107 1.465 4.107 2.08 0 2.746-0.763 3.144-3.6 0.967-6.905 1.441-6.931 3.846-0.205 1.824 5.102 3.414 4.73 5.385-1.262 1.88-5.713 2.626-5.728 3.411-0.065 0.665 4.793 0.896 5.132 3.503 5.132h2.206l-0.257-1.9c-0.141-1.045-0.691-3.79-1.222-6.1-0.532-2.31-1.259-5.64-1.617-7.4-1.203-5.921-2.613-7.007-4.313-3.323-0.538 1.168-1.668 3.617-2.511 5.442l-1.533 3.319-0.864-0.919c-0.476-0.505-1.65-2.719-2.611-4.919-2.219-5.083-3.209-6.173-4.178-4.605m-78.701 70.905c0.059 25.416-0.047 43.5-0.257 43.5-0.197 0-1.232-0.629-2.301-1.399-1.069-0.769-2.394-1.711-2.944-2.092-8.031-5.568-9.962-7.798-11.869-13.709-0.898-2.782-1.364-68.397-0.493-69.446 0.387-0.467 2.031-0.55 9.117-0.462l8.645 0.108 0.102 43.5m18.665-43.457c0.573 0.219 0.633 5.031 0.633 50.387 0 56.359 0.341 50.846-3 48.475-0.88-0.624-2.319-1.623-3.199-2.22-3.25-2.206-10.429-7.421-11.301-8.21l-0.9-0.814v-43.451c0-33.261 0.113-43.563 0.48-43.93 0.507-0.507 16.029-0.72 17.287-0.237m19.019 0.531c0.249 0.465 0.414 4.226 0.414 9.426 0 11.233 0.813 10.2-8.024 10.2h-7.196l-0.417 1.096c-0.272 0.717-0.373 6.908-0.29 17.9l0.127 16.804 0.99 1.939c0.869 1.7 4.005 4.824 6.087 6.061 1.743 1.037 7.507 5.041 8.079 5.614 0.657 0.656 1.036 41.498 0.401 43.153-0.355 0.925-0.701 0.814-3.459-1.11-1.374-0.959-5.018-3.501-8.098-5.649-3.08-2.147-5.732-4.108-5.894-4.356-0.366-0.564-0.406-101.22-0.039-101.58 0.75-0.751 16.899-0.278 17.319 0.507m19.2 0c0.249 0.465 0.414 4.226 0.414 9.426s-0.165 8.961-0.414 9.426c-0.42 0.785-14.5 1.215-17.086 0.522l-0.9-0.241v-9.72c0-7.402 0.119-9.768 0.5-9.922 1.709-0.69 17.084-0.242 17.486 0.509m18.908 49.926c0.058 27.885 0.057 50.88-3e-3 51.1s-1.295 1.21-2.744 2.2c-1.45 0.99-3.018 2.07-3.485 2.4-7.937 5.604-10.892 7.53-11.153 7.269-0.174-0.174-0.269-10.097-0.212-22.052l0.103-21.735 4.91-3.301c6.95-4.673 8.262-5.837 9.563-8.485l1.127-2.296 0.125-16.4c0.069-9.02 0.017-16.981-0.116-17.691l-0.242-1.292-7.684-0.108-7.683-0.109-0.107-9.592c-0.06-5.276-0.02-9.821 0.087-10.1 0.149-0.389 2.214-0.508 8.801-0.508h8.607l0.106 50.7m18.706-50.309c0.526 0.333 0.613 5.737 0.705 43.981l0.105 43.601-1.986 1.571c-1.093 0.863-3.21 2.399-4.705 3.412-1.496 1.014-3.619 2.484-4.719 3.267-4.848 3.453-6.205 4.261-6.787 4.037-0.948-0.363-0.933-98.683 0.016-99.631 0.726-0.727 16.261-0.939 17.371-0.238m19.586 0.383c0.717 1.34 0.553 62.631-0.179 66.791-1.082 6.146-3.081 9.364-8.152 13.122-1.68 1.245-4.347 3.22-5.925 4.388-1.579 1.169-3.154 2.125-3.5 2.125-0.658 0-1.019-86.278-0.363-86.933 0.752-0.753 17.699-0.278 18.119 0.507m-43.586 24.46c0 1.49-0.787 3.053-2.199 4.366l-1.075 1 1.737 0.2c2.488 0.286 2.515 1.831 0.051 3-0.927 0.44-1.689 0.89-1.693 1-0.03 0.704 0.892 1.291 2.331 1.484 2.715 0.364 1.962 2.477-1.184 3.325-1.705 0.459-1.435 1.591 0.38 1.591 2.43 0-0.412 3.316-3.228 3.766-2.1 0.336-1.277 2.234 0.969 2.234 0.391 0 0.711 0.075 0.711 0.167s0.101 0.431 0.225 0.753c0.287 0.749-1.716 1.48-4.057 1.48-1.702 0-1.71 7e-3 -1.377 1.17 0.185 0.643 0.232 1.273 0.106 1.4-0.826 0.825-5.784-0.311-7.399-1.696-0.997-0.855-1.33-0.288-0.539 0.919 1.469 2.243 4.268 3.858 6.319 3.645 2.24-0.233 4.217 0.265 4.931 1.243 0.729 0.996 0.384 1.319-1.409 1.319-2.21 0-2.255 0.508-0.202 2.315 2.219 1.953 2.269 2.485 0.234 2.485-1.405 0-1.595 0.121-1.823 1.159-0.365 1.66-1.701 2.843-2.029 1.795-1.44-4.593-4.864-9.087-7.88-10.341-2.518-1.047-1.733 1.954 1.139 4.355 3.575 2.988 2.566 7.253-1.232 5.208-2.439-1.314-3.665 0.69-1.607 2.624 2.412 2.266 0.742 6-2.685 6-3.44 0-4.767-2.921-2.708-5.96 1.325-1.955 1.336-1.995 0.805-2.834-0.379-0.6-0.547-0.571-3.262 0.568-0.409 0.172-1.063-0.082-1.761-0.682-1.537-1.322-1.131-2.61 1.634-5.184 3.204-2.982 3.587-5.444 0.61-3.925-2.642 1.348-5.342 4.791-6.992 8.917-0.866 2.165-2.641 1.413-2.641-1.119 0-0.409-0.462-0.581-1.557-0.581-1.979 0-2.481-0.951-0.929-1.759 3.071-1.598 3.389-3.482 0.489-2.902-1.37 0.274-1.811-0.202-1.217-1.313 0.533-0.996 2.936-1.68 4.835-1.376 1.864 0.298 4.249-0.878 5.94-2.93 1.531-1.856 1.575-2.352 0.139-1.555-4.499 2.495-8.249 2.53-7.313 0.069 0.385-1.013 0.358-1.034-1.337-1.034-3.547 0-5.574-1.551-3.15-2.41 2.85-1.01 3.057-1.675 0.717-2.301-3.051-0.816-5.426-3.658-3.093-3.702 1.797-0.034 2.219-1.118 0.604-1.553-3.462-0.932-4.166-2.814-1.256-3.359 1.479-0.278 2.893-1.317 2.237-1.644-0.06-0.03-0.79-0.364-1.622-0.742-2.338-1.064-2.86-3.209-0.747-3.073 2.589 0.167 2.646 0.086 1.117-1.606-1.583-1.752-2.074-3.09-1.693-4.61 0.337-1.342 0.932-1.266 3.891 0.496 3.435 2.047 7.775 2.4 9.476 0.771 0.751-0.72 1.485-1.016 2.469-0.995 0.77 0.017 2.592-0.206 4.049-0.494 5.558-1.098 6.465-0.03 6.134 7.222-0.242 5.304 0.094 6.85 1.546 7.129 1.584 0.306 3.745-3.372 3.265-5.556-0.989-4.504 0.05-6.371 3.55-6.375 2.792-3e-3 4.489-0.534 6.856-2.144 2.33-1.586 3.4-1.403 3.4 0.58m-30.548 4.176c-1.101 2.867 0.031 8.038 1.96 8.955 0.653 0.311 1.423 0.896 1.711 1.3 1.85 2.601 3.491-3.938 1.673-6.665-0.44-0.66-1.177-1.785-1.638-2.5-0.46-0.715-1.165-1.3-1.565-1.3s-0.989-0.1-1.309-0.223c-0.326-0.125-0.691 0.065-0.832 0.433m-83.576 11.29c-0.101 0.385-0.183 0.07-0.183-0.7s0.082-1.085 0.183-0.7c0.1 0.385 0.1 1.015 0 1.4m87.894 33.645c4.136 2.785 3.584 2.845 9.063-0.993 4.285-3.002 3.967-4.599 3.967 19.947v21.139l-1.067 0.989c-1.598 1.481-7.506 5.373-8.155 5.373-0.555 0-4.698-2.658-7.678-4.926l-1.5-1.141v-21.5c0-11.825 0.114-21.613 0.253-21.752 0.318-0.318 0.739-0.082 5.117 2.864m-27.87 49.346c-0.825 0.476-1.5 1.058-1.5 1.293 0 0.234-0.405 0.604-0.9 0.821-1.513 0.664-1.23 3.795 0.343 3.795 1.169 0 1.792 1.003 1.149 1.851-0.311 0.412-0.572 1.07-0.579 1.462-7e-3 0.391-0.283 0.816-0.613 0.942-0.33 0.127-0.6 0.621-0.6 1.099 0 0.477-0.264 1.244-0.586 1.704-0.322 0.461-0.476 0.946-0.343 1.08 0.134 0.134-0.052 0.357-0.414 0.495-0.404 0.156-0.657 0.707-0.657 1.433 0 0.65-0.165 1.079-0.367 0.954-0.345-0.213-0.881 1.413-1.04 3.156-0.085 0.94 1.633 2.624 2.678 2.624 0.415 0 0.848 0.245 0.963 0.543 0.511 1.333 3.387 0.569 4.307-1.143 0.472-0.88 0.988-1.658 1.146-1.729s0.403-0.746 0.545-1.5c0.141-0.754 0.403-1.371 0.581-1.371s0.442-0.538 0.586-1.195c0.144-0.658 0.429-1.299 0.632-1.424 0.203-0.126 0.369-0.558 0.369-0.962 0-0.403 0.27-0.837 0.6-0.964 0.344-0.132 0.6-0.729 0.6-1.4 0-0.716 0.255-1.267 0.657-1.422 0.362-0.138 0.545-0.365 0.406-0.503-0.138-0.138 0.062-0.507 0.443-0.82 0.382-0.313 0.484-0.464 0.227-0.336-0.258 0.128-0.033-0.624 0.498-1.671 1.343-2.647 0.889-4.903-0.987-4.903-0.19 0-0.57-0.27-0.844-0.6s-0.845-0.6-1.269-0.6-1.257-0.247-1.851-0.549c-2.005-1.02-2.648-1.045-4.18-0.16m56.324 1.322c-0.428 0.323-1.074 0.587-1.437 0.587-0.872 0-1.92 2.153-2.142 4.4-0.098 0.99-0.305 2.25-0.46 2.8s-0.372 1.72-0.482 2.6-0.367 1.706-0.571 1.836c-0.559 0.355-0.563 5.893-5e-3 6.451 0.26 0.26 0.473 0.806 0.473 1.212 0 2.221 3.915 3.084 5.186 1.143 0.118-0.18 0.894-0.452 1.725-0.605 0.831-0.152 1.406-0.448 1.277-0.657-0.13-0.209 0.094-0.38 0.497-0.38 0.744 0 2.248 2.28 2.248 3.407 0 0.326 0.105 0.608 0.234 0.626 0.128 0.018 0.728 0.114 1.333 0.214 0.801 0.131 1.1 0.013 1.1-0.433 0-0.418 0.391-0.614 1.227-0.614 2.538 0 4.667-2.411 3.728-4.222-0.882-1.7-0.901-2.632-0.069-3.464 0.77-0.77 0.776-2.958 0.01-3.475-0.305-0.206-0.942-1.422-1.068-2.039-0.189-0.933-0.877-1.272-2.216-1.092-1.409 0.189-2.712-1.312-2.399-2.764 0.032-0.15-0.227-0.432-0.577-0.628s-0.636-0.797-0.636-1.336-0.177-0.98-0.392-0.98c-0.216 0-0.506-0.45-0.644-1s-0.411-1-0.607-1c-0.197 0-0.357-0.27-0.357-0.6 0-0.816-3.894-0.806-4.976 0.013m-42.31 3.587c-0.809 0.55-1.632 1-1.829 1-0.196 0-0.562 0.45-0.812 1-0.251 0.55-0.611 1-0.801 1-1.03 0-1.857 7.975-0.924 8.908 0.249 0.249 0.452 0.79 0.452 1.203 0 0.827 3.057 3.889 3.882 3.889 0.926 0 0.547 1.011-0.644 1.714-0.639 0.377-1.549 0.686-2.023 0.686s-0.751 0.18-0.615 0.4 0.044 0.4-0.203 0.4c-1.299 0-0.175 2.911 1.181 3.06 0.742 0.081 1.57 0.331 1.84 0.555 0.734 0.609 4.687 0.669 4.885 0.075 0.09-0.27 0.379-0.49 0.641-0.49 0.263 0 1.069-0.54 1.792-1.2 0.722-0.66 1.482-1.2 1.689-1.2 0.206 0 0.375-0.143 0.375-0.318 0-0.174 0.72-1.09 1.6-2.033 0.88-0.944 1.6-1.971 1.6-2.283 0-0.311 0.145-0.566 0.323-0.566 1.508 0 2.535-11.585 1.077-12.145-0.33-0.126-0.6-0.429-0.6-0.673 0-0.618-1.975-2.444-3.549-3.282-2.165-1.152-7.451-0.982-9.337 0.3m22.184 0.866c-0.937 0.331-1.601 0.767-1.477 0.968s0.019 0.366-0.234 0.366c-1.604 0-3.986 3.869-3.987 6.476 0 0.592-0.18 1.188-0.4 1.324s-0.4 1.126-0.4 2.2 0.18 2.064 0.4 2.2 0.406 0.822 0.414 1.524 0.272 1.726 0.586 2.276 0.578 1.31 0.586 1.689c0.024 1.156 3.43 4.24 5.009 4.536 0.778 0.146 1.512 0.425 1.633 0.62s0.884 0.352 1.696 0.349c0.986-4e-3 1.295-0.121 0.93-0.352-0.36-0.228 0.026-0.354 1.132-0.37 0.924-0.012 2.109-0.304 2.635-0.649 0.97-0.636 3.89-3.423 3.586-3.423-0.091 0 0.128-0.675 0.488-1.5 1.411-3.231 0.737-12.313-0.994-13.42-0.276-0.176-0.501-0.499-0.501-0.717 0-2.993-6.964-5.562-11.102-4.097m-16.335 6.754c0.806 0.806 0.04 2.18-1.216 2.18-1.481 0-1.662-2.147-0.213-2.531 0.366-0.097 0.698-0.197 0.737-0.223 0.04-0.025 0.351 0.233 0.692 0.574m20.784 2.678c0.836 1.93 0.746 5.75-0.148 6.303-0.75 0.463-1.612-0.537-1.714-1.987-0.047-0.667-0.175-1.213-0.285-1.213-0.28-1e-3 -0.154-2.379 0.196-3.701 0.415-1.571 1.102-1.361 1.951 0.598m-10.265 2.802c-0.095 0.495-0.173 0.09-0.173-0.9s0.078-1.395 0.173-0.9c0.096 0.495 0.096 1.305 0 1.8m-83.282-1.314c7.621 1.353 12.959 2.919 28 8.218 12.465 4.391 16.788 5.745 26.93 8.436 16.426 4.359 35.648 5.125 52.67 2.099 2.42-0.43 5.3-0.939 6.4-1.131s2.99-0.615 4.2-0.94 3.64-0.975 5.4-1.444c4.365-1.163 13.669-4.224 22.6-7.436 2.49-0.896 10.761-3.724 13.515-4.622 16.729-5.454 40.519-5.128 47.182 0.646l1.503 1.303-0.06 3.343c-0.063 3.502-2.556 18.773-3.598 22.042-0.649 2.033-0.95 2.254-1.754 1.285-1.672-2.014-7.357-4.181-13.15-5.013-7.566-1.086-12.278 5e-3 -31.238 7.233-7.706 2.938-15.918 5.724-21.8 7.395-1.32 0.375-2.85 0.835-3.4 1.021-0.55 0.187-2.17 0.604-3.6 0.928-1.43 0.323-4.67 1.055-7.2 1.626-2.53 0.57-6.04 1.228-7.8 1.462-10.032 1.33-12.62 1.605-18.8 2.002-7.035 0.452-20.104 0.228-25.4-0.435-1.65-0.207-5.34-0.664-8.2-1.015-5.216-0.642-9.127-1.329-13.6-2.392-1.32-0.314-3.66-0.859-5.2-1.212-5.741-1.314-15.439-4.337-24-7.48-1.76-0.646-4.406-1.6-5.88-2.12s-3.544-1.303-4.6-1.74c-17.343-7.178-30.468-7.362-38.697-0.542-1.468 1.216-1.899 0.779-2.57-2.605-5.138-25.914-4.87-26.723 9.547-28.853 1.65-0.244 3.45-0.509 4-0.59 3.472-0.508 14.52-0.193 18.6 0.531m-13.815 4.514c-4.623 5.208-4.574 5.197-4.986 1.088-0.346-3.445-0.754-3.928-3.06-3.619l-1.739 0.234 0.026 3.598c0.049 6.954 0.892 17.101 1.449 17.454 0.731 0.463 2.626 0.426 3.551-0.069 0.677-0.362 0.774-0.864 0.774-4 0-4.543 0.331-4.587 3.626-0.486 3.284 4.086 3.538 4.247 6.202 3.914 2.576-0.322 2.74-0.829 0.958-2.961-0.668-0.799-1.349-1.633-1.515-1.853s-1.33-1.65-2.586-3.178c-2.845-3.458-2.851-3.37 0.524-7.137 3.143-3.509 3.37-4.344 1.491-5.489-1.729-1.054-1.403-1.227-4.715 2.504m195.43-2.763c-0.668 0.488-0.692 0.766-0.274 3.1 0.662 3.698 0.747 6.845 0.19 7.042-0.256 0.091-2.386-1.69-4.733-3.957-7.053-6.813-7.912-6.77-6.835 0.338 0.361 2.387 0.941 6.584 1.288 9.326 0.903 7.142 1.217 7.603 4.366 6.406 1.047-0.398 1.068-0.471 0.83-2.9-0.951-9.701-1.365-9.429 4.993-3.265 6.527 6.327 7.297 6.203 6.38-1.027-0.923-7.277-2.059-14.933-2.264-15.265-0.329-0.532-3.134-0.388-3.941 0.202m-25.369 5.668c-1.843 0.744-3.855 1.464-4.473 1.6-2.493 0.548-2.476 1.092 0.264 8.185 0.98 2.536 2.117 5.51 2.528 6.61 2.618 7.011 2.288 6.708 5.752 5.279 1.364-0.562 3.601-1.418 4.973-1.902 2.995-1.056 3.466-1.54 3.104-3.188-0.384-1.748-1.064-1.847-4.214-0.611-3.475 1.364-3.899 1.266-4.8-1.112-1.029-2.716-0.323-3.448 4.679-4.854 1.125-0.316 1.521-1.399 0.781-2.139-0.622-0.623-1.736-0.439-5.244 0.865-1.92 0.713-2.608 0.302-3.307-1.976-0.563-1.833-0.325-2.403 1.227-2.944 4.307-1.501 5.027-2.183 4.179-3.958-0.693-1.451-1.558-1.428-5.449 0.145m-141.52 2.039c-0.226 0.589-0.109 3.713 0.615 16.471 0.263 4.622 0.518 5.264 2.094 5.279 0.585 5e-3 14.777-14.325 15.108-15.256 0.157-0.442-2.285-3.138-2.842-3.138-0.353 0-1.885 1.5-6.258 6.127-3.35 3.545-3.386 3.512-3.753-3.359-0.169-3.173-0.389-5.993-0.487-6.268-0.283-0.787-4.168-0.662-4.477 0.144m122.42 5.792c-0.692 0.201-1.359 0.629-1.483 0.951-0.192 0.5 5.572 18.17 6.324 19.387 0.42 0.68 1.238 0.524 6.358-1.206 6.237-2.107 6.164-2.064 5.948-3.534-0.302-2.057-0.973-2.279-4.011-1.324-4.171 1.313-4.339 1.341-4.779 0.799-0.228-0.28-0.874-1.949-1.437-3.709-3.944-12.332-3.889-12.242-6.92-11.364m-11.23 3.142c-5.105 1.319-5.313 1.411-5.313 2.369 0 1.034 4.297 17.914 4.799 18.851 0.567 1.059 1.173 1.021 6.694-0.422 5.344-1.397 5.862-1.693 5.506-3.146-0.499-2.041-0.999-2.188-4.334-1.273-3.588 0.984-4.167 0.842-4.476-1.096-0.128-0.803-0.295-1.769-0.37-2.146-0.191-0.962 0.37-1.31 3.705-2.297 2.763-0.818 2.918-0.926 2.8-1.942-0.148-1.284-0.881-1.336-4.524-0.325-2.786 0.774-3.463 0.371-3.977-2.367-0.362-1.933 0.165-2.463 3.008-3.022 3.268-0.643 3.815-1.105 3.329-2.81-0.508-1.783-1.236-1.823-6.847-0.374m-78.656 1.392c-0.35 0.533-1.336 2.468-2.192 4.3-0.855 1.831-2.553 5.4-3.771 7.93-3.006 6.239-3 6.215-1.447 6.756 2.813 0.981 3.028 0.823 5.201-3.82 2.37-5.062 2.825-5.034 3.512 0.222 0.742 5.679 2.34 6.044 5.438 1.242 3.159-4.899 3.965-4.673 3.61 1.011-0.333 5.325-0.212 5.619 2.469 6.021 2.535 0.381 2.51 0.488 2.517-10.883 8e-3 -13.252-0.147-13.435-5.506-6.511-3.992 5.158-4.064 5.237-4.606 5.056-0.497-0.166-0.695-0.971-1.644-6.694-0.931-5.607-2.019-7.015-3.581-4.63m-45.941 0.775c-1.022 0.776-1.558 2.491-1.131 3.615 1.37 3.605 6.409 2.391 5.897-1.422-0.327-2.441-2.888-3.62-4.766-2.193m111.08 0.915c-0.396 0.395-0.57 0.996-0.435 1.5 0.853 3.184 0.743 6.919-0.211 7.174-3.355 0.898-4.735 0.242-4.769-2.267-0.063-4.728-1.161-6.227-4.001-5.462l-1.679 0.452 0.27 2.471c0.54 4.933 2.671 18.076 2.981 18.386 0.356 0.356 3.554-0.262 4.08-0.788 0.185-0.185 0.127-1.999-0.129-4.031-0.546-4.327-0.448-4.522 2.419-4.797 2.368-0.228 2.321-0.292 3.099 4.169 0.743 4.259 0.8 4.327 3.246 3.87l1.931-0.361-0.112-2.388c-0.062-1.313-0.38-4.188-0.708-6.388-0.327-2.2-0.778-5.26-1.002-6.8-0.866-5.964-0.598-5.4-2.568-5.4-1.095 0-2 0.247-2.412 0.66m-45.175 1.703c-0.124 0.2-0.412 2.495-0.641 5.1s-0.636 6.901-0.903 9.547c-0.708 7.001-1.3 6.31 6.024 7.026 5.827 0.57 6.497 0.401 6.497-1.636 0-1.539-0.578-1.854-3.95-2.153-3.683-0.327-3.651-0.305-3.644-2.571 0.01-2.906 0.246-3.076 4.281-3.076 3.477 0 3.513-0.01 3.513-0.997 0-0.936-0.181-1.021-3-1.413-3.763-0.522-4-0.678-4-2.64 0-2.948 0.431-3.279 3.853-2.958 3.378 0.317 4.147-0.02 4.147-1.817 0-1.516-0.317-1.653-5.188-2.229-5.174-0.612-6.699-0.652-6.989-0.183m23.114 0.449c-11.391 2.283-11.099 20.221 0.355 21.722 4.244 0.557 7.508-0.822 7.508-3.172 0-1.748-0.282-1.855-3.483-1.326-4.893 0.808-7.287-1.272-7.308-6.349-0.019-4.581 1.896-6.687 6.084-6.687 3.02 0 3.409-0.278 3.479-2.486 0.048-1.511-3.302-2.37-6.635-1.702m-95.982 7.754c2.622 0.79 6.645 3.346 6.645 4.223 0 0.762-7.11 3.641-12 4.858-6.365 1.585-15.951 0.521-18.743-2.08-4.53-4.22 14.738-9.818 24.098-7.001m198.04-0.115c6.614 1.137 12.322 4.874 10.604 6.945-2.982 3.593-14.505 3.941-24.004 0.726-8.236-2.789-8.653-3.6-3.239-6.314 4.294-2.152 9.525-2.579 16.639-1.357m-161.4-0.072c-1.725 0.414-2.665 2.893-1.715 4.525 1.323 2.274 5.329 1.828 5.802-0.646 0.459-2.403-1.701-4.453-4.087-3.879" fill="#eab344"/>
<path d="m198.05 42.5c-3.605 7.585-3.492 21.88 0.206 25.967 1.03 1.138 14.286 0.972 15.134-0.19 2.233-3.058 3.292-17.095 1.651-21.877-2.121-6.178-3.4-7.625-5.691-6.438-2.398 1.244-5.987 1.148-7.943-0.213-1.364-0.949-1.747-0.635-3.357 2.751m-11.992 0.114c-11.004 2.389-14.462 5.865-14.462 14.539 0 4.833 0.541 7.158 2.631 11.308 1.535 3.048 1.629 3.106 4.351 2.672 1.11-0.177 4.623-0.608 7.806-0.958s5.928-0.723 6.1-0.829c0.424-0.262 0.396-1.647-0.039-1.916-2.538-1.568-3.546-15.749-1.531-21.542 0.595-1.712 1.082-3.287 1.082-3.5 0-0.541-2.916-0.429-5.938 0.226m33.138-0.231c0 0.275 0.563 2.146 1.25 4.158 2.089 6.113 1.712 12.898-1.087 19.546-1.161 2.76-1.175 2.992-0.201 3.301 0.826 0.262 9.391 1.316 13.702 1.686l2.664 0.228 1.598-3.351c6.038-12.66 2.601-21.714-9.384-24.72-4.52-1.134-8.542-1.533-8.542-0.848m-11.253 0.989c1.842 0.953 2.376 3.308 1.27 5.593l-0.888 1.835 0.835 1.726c0.46 0.95 0.836 1.973 0.836 2.274s-0.376 1.324-0.836 2.274l-0.835 1.726 0.888 1.835c2.141 4.422-2.319 8.165-6.2 5.205-1.715-1.308-1.998-3.901-0.634-5.816 0.777-1.092 0.777-1.11 0-2.56-1.009-1.882-0.993-3.63 0.047-5.313l0.83-1.343-0.83-1.166c-2.745-3.855 1.298-8.451 5.517-6.27m-50.658 8.208c-7.898 2.875-10.184 11.231-5.554 20.305 2.46 4.824 4.02 5.757 7.335 4.39 1.282-0.528 3.713-1.456 5.404-2.062 3.14-1.125 3.902-1.803 2.931-2.609-0.414-0.344-0.841-0.302-1.756 0.171-4.951 2.56-9.132-3.569-5.202-7.623 0.72-0.744 1.545-1.352 1.831-1.352 0.287 0 0.522-0.135 0.522-0.3s-1.095-0.3-2.433-0.3c-2.242 0-2.524-0.102-3.6-1.306-2.408-2.695-0.664-7.682 2.693-7.7 1.512-8e-3 2.251-0.521 2.076-1.442-0.197-1.039-1.698-1.1-4.247-0.172m92.475-0.23c-0.451 1.174 0.138 1.85 1.61 1.85 2.969 0 5.245 3.361 4.104 6.059-0.933 2.205-2.064 2.941-4.52 2.941-1.187 0-2.158 0.021-2.158 0.047s0.81 0.858 1.8 1.848c4.157 4.157 0.094 10.339-5.049 7.68-0.915-0.473-1.342-0.515-1.756-0.171-0.8 0.664-0.298 1.525 1.145 1.964 1.819 0.554 6.648 2.367 8.12 3.048 1.857 0.86 2.301 0.745 3.879-1.002 5.3-5.866 6.372-16.523 2.127-21.137-2.019-2.195-8.787-4.47-9.302-3.127m-45.564 25.214c-5.453 2.392-2.586 10.08 3.063 8.215 2.544-0.839 3.502-3.74 2.118-6.416-0.905-1.749-3.355-2.6-5.181-1.799m-25.898 5.898c-0.561 0.516-1.488 1.342-2.061 1.835-1.66 1.431-1.109 2.068 3.064 3.54l1.613 0.569 2.141-1.652c2.693-2.077 2.74-2.85 0.241-3.961-3.013-1.34-3.84-1.395-4.998-0.331m49.998 0.203c-2.69 1.228-2.808 1.709-0.848 3.447 2.738 2.43 3.071 2.493 5.973 1.135 3.254-1.523 3.254-1.519 0.274-4.147-2.014-1.776-2.394-1.807-5.399-0.435m-73.7 4.516c-0.44 0.165-1.205 0.438-1.7 0.606-0.506 0.172-0.9 0.636-0.9 1.06 0 0.414-0.192 0.753-0.427 0.753-0.251 0-0.323-0.371-0.174-0.9 0.198-0.705 0.162-0.77-0.167-0.3-0.605 0.865-0.539 5.035 0.09 5.671 0.288 0.291 0.65 0.864 0.805 1.274 0.24 0.633 0.379 0.665 0.921 0.215 0.534-0.443 0.713-0.431 1.095 0.071 1.447 1.905 4.687 0.622 6.543-2.59 1.977-3.423-2.107-7.356-6.086-5.86m97.705 0.245c-2.919 1.584-2.991 4.702-0.179 7.674 1.29 1.362 4.017 1.872 4.369 0.816 0.088-0.266 0.688-0.521 1.333-0.567s1.307-0.099 1.472-0.117c0.165-0.017 0.297-1.517 0.293-3.332l-7e-3 -3.3-2.093-0.902c-2.414-1.041-3.651-1.106-5.188-0.272m8.188 3.774c0 0.77 0.082 1.085 0.183 0.7 0.1-0.385 0.1-1.015 0-1.4-0.101-0.385-0.183-0.07-0.183 0.7m-67.493 3.452c-4.277 0.337-12.213 1.56-19.4 2.992-3.415 0.68-8.065 2.724-7.919 3.48 0.285 1.48 6.44 3.458 15.519 4.987 17.472 2.943 40.431 2.295 56.2-1.587 8.356-2.057 9.946-3.278 6.3-4.838-3.666-1.569-6.193-2.145-18.1-4.127-4.849-0.807-26.282-1.403-32.6-0.907m-53.319 27.027c-0.626 0.626-0.688 22.387-0.067 23.547 0.439 0.821 130.21 1.256 131.49 0.441 0.394-0.25 0.483-2.982 0.4-12.294l-0.106-11.973-65.619-0.101c-50.706-0.078-65.728 8e-3 -66.1 0.38m17.822 3.721c0.223 5.198 0.326 5.215 4.731 0.8 3.601-3.609 3.9-3.764 5.185-2.687 1.735 1.454 1.573 1.982-1.615 5.258-3.418 3.511-3.464 3.674-1.737 6.058 6.062 8.369 6.188 8.771 2.746 8.771h-2.388l-1.534-2.1c-0.843-1.155-1.944-2.775-2.445-3.6-1.772-2.917-2.753-1.951-2.944 2.9l-0.102 2.6h-4l-0.107-9.792c-0.127-11.514-0.255-10.888 2.203-10.73l1.904 0.122 0.103 2.4m37.707-2.195c0.811 0.434 1.206 1.187 3.268 6.221 2.187 5.338 2.359 5.481 3.492 2.917 1.288-2.913 1.846-4.282 2.448-5.997 0.775-2.212 1.659-3.144 3.222-3.398 3.119-0.506 3.151 0.942 0.158 7.252-0.522 1.1-1.97 4.34-3.217 7.2-3.477 7.967-4.297 8.306-6.561 2.706-1.068-2.641-3.497-8.161-5.47-12.427-1.519-3.287-1.668-4.337-0.65-4.603 1.269-0.332 2.541-0.282 3.31 0.129m43.058 0.095c0.202 0.275 1.153 2.3 2.113 4.5 0.961 2.2 2.135 4.414 2.611 4.919l0.864 0.919 1.533-3.319c0.843-1.825 1.973-4.274 2.511-5.442 1.7-3.684 3.11-2.598 4.313 3.323 0.358 1.76 1.085 5.09 1.617 7.4 0.531 2.31 1.081 5.055 1.222 6.1l0.257 1.9h-2.206c-2.607 0-2.838-0.339-3.503-5.132-0.785-5.663-1.531-5.648-3.411 0.065-1.971 5.992-3.561 6.364-5.385 1.262-2.405-6.726-2.879-6.7-3.846 0.205-0.398 2.837-1.064 3.6-3.144 3.6-2.325 0-2.411-0.24-1.465-4.107 0.443-1.811 1.183-5.158 1.645-7.437 1.834-9.055 2.722-10.875 4.274-8.756m-79.388 27.58c-0.367 0.367-0.48 10.669-0.48 43.93v43.451l0.9 0.814c0.872 0.789 8.051 6.004 11.301 8.21 0.88 0.597 2.319 1.596 3.199 2.22 3.341 2.371 3 7.884 3-48.475 0-45.356-0.06-50.168-0.633-50.387-1.258-0.483-16.78-0.27-17.287 0.237m38.02-0.215c-0.381 0.154-0.5 2.52-0.5 9.922v9.72l0.9 0.241c2.586 0.693 16.666 0.263 17.086-0.522 0.249-0.465 0.414-4.226 0.414-9.426s-0.165-8.961-0.414-9.426c-0.402-0.751-15.777-1.199-17.486-0.509m37.729 0.364c-0.949 0.948-0.964 99.268-0.016 99.631 0.582 0.224 1.939-0.584 6.787-4.037 1.1-0.783 3.223-2.253 4.719-3.267 1.495-1.013 3.612-2.549 4.705-3.412l1.986-1.571-0.105-43.601c-0.092-38.244-0.179-43.648-0.705-43.981-1.11-0.701-16.645-0.489-17.371 0.238m-147.42 2.204c3e-3 0.312 0.184 0.837 0.401 1.167 0.314 0.476 0.37 0.416 0.271-0.29-0.143-1.023-0.681-1.726-0.672-0.877m109.45 68.648c-0.139 0.139-0.253 9.927-0.253 21.752v21.5l1.5 1.141c2.98 2.268 7.123 4.926 7.678 4.926 0.649 0 6.557-3.892 8.155-5.373l1.067-0.989v-21.139c0-24.546 0.318-22.949-3.967-19.947-5.479 3.838-4.927 3.778-9.063 0.993-4.378-2.946-4.799-3.182-5.117-2.864m-92.053 62.919c-0.714 0.307-0.685 0.347 0.276 0.372 0.592 0.015 1.188-0.152 1.324-0.372 0.295-0.478-0.489-0.478-1.6 0m204.2-8e-3c0 0.225 0.57 0.408 1.267 0.408 1.456 0 1.403-0.175-0.167-0.551-0.653-0.157-1.1-0.099-1.1 0.143m-206.4 5.463c-19.062 2.793-18.9 2.442-13.547 29.443 0.671 3.384 1.102 3.821 2.57 2.605 8.229-6.82 21.354-6.636 38.697 0.542 1.056 0.437 3.126 1.22 4.6 1.74s4.12 1.474 5.88 2.12c8.561 3.143 18.259 6.166 24 7.48 1.54 0.353 3.88 0.898 5.2 1.212 4.473 1.063 8.384 1.75 13.6 2.392 2.86 0.351 6.55 0.808 8.2 1.015 5.296 0.663 18.365 0.887 25.4 0.435 6.18-0.397 8.768-0.672 18.8-2.002 1.76-0.234 5.27-0.892 7.8-1.462 2.53-0.571 5.77-1.303 7.2-1.626 1.43-0.324 3.05-0.741 3.6-0.928 0.55-0.186 2.08-0.646 3.4-1.021 5.882-1.671 14.094-4.457 21.8-7.395 18.96-7.228 23.672-8.319 31.238-7.233 5.793 0.832 11.478 2.999 13.15 5.013 0.804 0.969 1.105 0.748 1.754-1.285 1.042-3.269 3.535-18.54 3.598-22.042l0.06-3.343-1.503-1.303c-6.663-5.774-30.453-6.1-47.182-0.646-2.754 0.898-11.025 3.726-13.515 4.622-8.931 3.212-18.235 6.273-22.6 7.436-1.76 0.469-4.19 1.119-5.4 1.444s-3.1 0.748-4.2 0.94-3.98 0.701-6.4 1.131c-17.022 3.026-36.244 2.26-52.67-2.099-10.142-2.691-14.465-4.045-26.93-8.436-23.21-8.176-35.174-10.422-46.6-8.749m9.5 2.541c1.879 1.145 1.652 1.98-1.491 5.489-3.375 3.767-3.369 3.679-0.524 7.137 1.256 1.528 2.42 2.958 2.586 3.178s0.847 1.054 1.515 1.853c1.782 2.132 1.618 2.639-0.958 2.961-2.664 0.333-2.918 0.172-6.202-3.914-3.295-4.101-3.626-4.057-3.626 0.486 0 3.136-0.097 3.638-0.774 4-0.925 0.495-2.82 0.532-3.551 0.069-0.557-0.353-1.4-10.5-1.449-17.454l-0.026-3.598 1.739-0.234c2.306-0.309 2.714 0.174 3.06 3.619 0.412 4.109 0.363 4.12 4.986-1.088 3.312-3.731 2.986-3.558 4.715-2.504m194.66-0.461c0.205 0.332 1.341 7.988 2.264 15.265 0.917 7.23 0.147 7.354-6.38 1.027-6.358-6.164-5.944-6.436-4.993 3.265 0.238 2.429 0.217 2.502-0.83 2.9-3.149 1.197-3.463 0.736-4.366-6.406-0.347-2.742-0.927-6.939-1.288-9.326-1.077-7.108-0.218-7.151 6.835-0.338 2.347 2.267 4.477 4.048 4.733 3.957 0.557-0.197 0.472-3.344-0.19-7.042-0.418-2.334-0.394-2.612 0.274-3.1 0.807-0.59 3.612-0.734 3.941-0.202m-139.36 1.841c0 0.891 0.626 1.068 0.692 0.196 0.032-0.424-0.111-0.772-0.317-0.772s-0.375 0.259-0.375 0.576m115.5 3.884c0.848 1.775 0.128 2.457-4.179 3.958-1.552 0.541-1.79 1.111-1.227 2.944 0.699 2.278 1.387 2.689 3.307 1.976 3.508-1.304 4.622-1.488 5.244-0.865 0.74 0.74 0.344 1.823-0.781 2.139-5.002 1.406-5.708 2.138-4.679 4.854 0.901 2.378 1.325 2.476 4.8 1.112 3.15-1.236 3.83-1.137 4.214 0.611 0.362 1.648-0.109 2.132-3.104 3.188-1.372 0.484-3.609 1.34-4.973 1.902-3.464 1.429-3.134 1.732-5.752-5.279-0.411-1.1-1.548-4.074-2.528-6.61-2.74-7.093-2.757-7.637-0.264-8.185 0.618-0.136 2.63-0.856 4.473-1.6 3.891-1.573 4.756-1.596 5.449-0.145m-142.49 2.04c0.098 0.275 0.318 3.095 0.487 6.268 0.367 6.871 0.403 6.904 3.753 3.359 6.639-7.025 6.063-6.679 7.921-4.762 1.694 1.747 2.168 1.004-6.129 9.608-10.214 10.591-9.423 11.198-10.453-8.029-0.167-3.111-0.192-5.946-0.056-6.3 0.309-0.806 4.194-0.931 4.477-0.144m120.99 6.282c0.46 0.86 2.276 6.028 3.872 11.018 0.563 1.76 1.209 3.429 1.437 3.709 0.44 0.542 0.608 0.514 4.779-0.799 3.038-0.955 3.709-0.733 4.011 1.324 0.216 1.47 0.289 1.427-5.948 3.534-5.12 1.73-5.938 1.886-6.358 1.206-0.752-1.217-6.516-18.887-6.324-19.387 0.218-0.567 2.018-1.277 3.426-1.351 0.377-0.02 0.874 0.316 1.105 0.746m-7.431 3.17c0.486 1.705-0.061 2.167-3.329 2.81-2.843 0.559-3.37 1.089-3.008 3.022 0.514 2.738 1.191 3.141 3.977 2.367 3.643-1.011 4.376-0.959 4.524 0.325 0.118 1.016-0.037 1.124-2.8 1.942-3.335 0.987-3.896 1.335-3.705 2.297 0.075 0.377 0.242 1.343 0.37 2.146 0.309 1.938 0.888 2.08 4.476 1.096 3.335-0.915 3.835-0.768 4.334 1.273 0.356 1.453-0.162 1.749-5.506 3.146-5.521 1.443-6.127 1.481-6.694 0.422-0.502-0.937-4.799-17.817-4.799-18.851 0-0.958 0.208-1.05 5.313-2.369 5.611-1.449 6.339-1.409 6.847 0.374m-82.913 1.148c0.235 0.605 0.68 2.63 0.991 4.5 0.949 5.723 1.147 6.528 1.644 6.694 0.542 0.181 0.614 0.102 4.606-5.056 5.359-6.924 5.514-6.741 5.506 6.511-7e-3 11.371 0.018 11.264-2.517 10.883-2.681-0.402-2.802-0.696-2.469-6.021 0.355-5.684-0.451-5.91-3.61-1.011-3.098 4.802-4.696 4.437-5.438-1.242-0.687-5.256-1.142-5.284-3.512-0.222-2.173 4.643-2.388 4.801-5.201 3.82-1.553-0.541-1.559-0.517 1.447-6.756 1.218-2.53 2.916-6.099 3.771-7.93 2.6-5.565 3.826-6.634 4.782-4.17m-44.713 0.682c0.404 0.305 0.83 1.276 0.948 2.156 0.512 3.813-4.527 5.027-5.897 1.422-1.054-2.77 2.564-5.386 4.949-3.578m111.63 1.518c0.112 0.715 0.387 2.56 0.61 4.1 0.224 1.54 0.675 4.6 1.002 6.8 0.328 2.2 0.646 5.075 0.708 6.388l0.112 2.388-1.931 0.361c-2.446 0.457-2.503 0.389-3.246-3.87-0.778-4.461-0.731-4.397-3.099-4.169-2.867 0.275-2.965 0.47-2.419 4.797 0.256 2.032 0.314 3.846 0.129 4.031-0.526 0.526-3.724 1.144-4.08 0.788-0.31-0.31-2.441-13.453-2.981-18.386l-0.27-2.471 1.679-0.452c2.84-0.765 3.938 0.734 4.001 5.462 0.034 2.509 1.414 3.165 4.769 2.267 0.954-0.255 1.064-3.99 0.211-7.174-0.344-1.284 0.811-2.16 2.847-2.16 1.67 0 1.763 0.062 1.958 1.3m-42.556 1.246c4.871 0.576 5.188 0.713 5.188 2.229 0 1.797-0.769 2.134-4.147 1.817-3.422-0.321-3.853 0.01-3.853 2.958 0 1.962 0.237 2.118 4 2.64 2.819 0.392 3 0.477 3 1.413 0 0.987-0.036 0.997-3.513 0.997-4.035 0-4.271 0.17-4.281 3.076-7e-3 2.266-0.039 2.244 3.644 2.571 3.372 0.299 3.95 0.614 3.95 2.153 0 2.037-0.67 2.206-6.497 1.636-7.324-0.716-6.732-0.025-6.024-7.026 0.267-2.646 0.674-6.942 0.903-9.547 0.553-6.29-0.149-5.838 7.63-4.917m22.088 0.719c0.73 0.379 0.865 1.569 0.331 2.935-0.271 0.695-0.683 0.8-3.138 0.8-4.188 0-6.103 2.106-6.084 6.687 0.021 5.077 2.415 7.157 7.308 6.349 3.201-0.529 3.483-0.422 3.483 1.326 0 4.216-9.564 4.461-13.383 0.342-7.687-8.289 1.77-23.475 11.483-18.439m-112.65 6.751c-8.918 1.005-16.086 5.045-13.396 7.551 4.204 3.917 14.701 3.812 25.843-0.258 5.875-2.146 6.078-2.535 2.467-4.729-4.165-2.53-8.543-3.283-14.914-2.564m196.71 0.156c-6.842 1.551-9.935 4.58-6.261 6.132 11.69 4.936 25.287 5.449 28.904 1.092 3.214-3.873-13.667-9.258-22.643-7.224m-145.58 1.916c1.06 2.521-0.426 4.472-3.23 4.238-2.298-0.192-3.328-2.091-2.285-4.213 1.206-2.452 4.488-2.468 5.515-0.025m20.82 47.512c0.136 0.22 0.732 0.387 1.324 0.372 0.961-0.025 0.99-0.065 0.276-0.372-1.111-0.478-1.895-0.478-1.6 0m59 0c-0.955 0.306-0.943 0.322 0.276 0.36 0.702 0.022 1.388-0.14 1.524-0.36 0.284-0.46-0.364-0.46-1.8 0m-51.967 0.144c0.092 0.079 0.707 0.264 1.367 0.412 0.876 0.196 1.038 0.159 0.6-0.138-0.54-0.365-2.368-0.62-1.967-0.274" fill="#e31b1c"/>
<path d="m216.55 15.2c0 2.75 0.064 3.875 0.142 2.5s0.078-3.625 0-5-0.142-0.25-0.142 2.5m-46.454 99.1c19.525 0.057 51.475 0.057 71 0s3.55-0.104-35.5-0.104-55.025 0.047-35.5 0.104m-102.4 50.7c4e-3 0.88 0.086 1.193 0.182 0.695 0.096-0.497 0.092-1.217-8e-3 -1.6-0.1-0.382-0.179 0.025-0.174 0.905m156.9 10.054c-2.367 1.61-4.064 2.141-6.856 2.144-3.5 4e-3 -4.539 1.871-3.55 6.375 0.48 2.184-1.681 5.862-3.265 5.556-1.452-0.279-1.788-1.825-1.546-7.129 0.331-7.252-0.576-8.32-6.134-7.222-1.457 0.288-3.279 0.511-4.049 0.494-0.984-0.021-1.718 0.275-2.469 0.995-1.701 1.629-6.041 1.276-9.476-0.771-2.959-1.762-3.554-1.838-3.891-0.496-0.381 1.52 0.11 2.858 1.693 4.61 1.529 1.692 1.472 1.773-1.117 1.606-2.113-0.136-1.591 2.009 0.747 3.073 0.832 0.378 1.562 0.712 1.622 0.742 0.656 0.327-0.758 1.366-2.237 1.644-2.91 0.545-2.206 2.427 1.256 3.359 1.615 0.435 1.193 1.519-0.604 1.553-2.333 0.044 0.042 2.886 3.093 3.702 2.34 0.626 2.133 1.291-0.717 2.301-2.424 0.859-0.397 2.41 3.15 2.41 1.695 0 1.722 0.021 1.337 1.034-0.936 2.461 2.814 2.426 7.313-0.069 1.436-0.797 1.392-0.301-0.139 1.555-1.691 2.052-4.076 3.228-5.94 2.93-1.899-0.304-4.302 0.38-4.835 1.376-0.594 1.111-0.153 1.587 1.217 1.313 2.9-0.58 2.582 1.304-0.489 2.902-1.552 0.808-1.05 1.759 0.929 1.759 1.095 0 1.557 0.172 1.557 0.581 0 2.532 1.775 3.284 2.641 1.119 1.65-4.126 4.35-7.569 6.992-8.917 2.977-1.519 2.594 0.943-0.61 3.925-2.765 2.574-3.171 3.862-1.634 5.184 0.698 0.6 1.352 0.854 1.761 0.682 2.715-1.139 2.883-1.168 3.262-0.568 0.531 0.839 0.52 0.879-0.805 2.834-2.059 3.039-0.732 5.96 2.708 5.96 3.427 0 5.097-3.734 2.685-6-2.058-1.934-0.832-3.938 1.607-2.624 3.798 2.045 4.807-2.22 1.232-5.208-2.872-2.401-3.657-5.402-1.139-4.355 3.016 1.254 6.44 5.748 7.88 10.341 0.328 1.048 1.664-0.135 2.029-1.795 0.228-1.038 0.418-1.159 1.823-1.159 2.035 0 1.985-0.532-0.234-2.485-2.053-1.807-2.008-2.315 0.202-2.315 1.793 0 2.138-0.323 1.409-1.319-0.714-0.978-2.691-1.476-4.931-1.243-2.051 0.213-4.85-1.402-6.319-3.645-0.791-1.207-0.458-1.774 0.539-0.919 1.615 1.385 6.573 2.521 7.399 1.696 0.126-0.127 0.079-0.757-0.106-1.4-0.333-1.163-0.325-1.17 1.377-1.17 2.341 0 4.344-0.731 4.057-1.48-0.124-0.322-0.225-0.661-0.225-0.753s-0.32-0.167-0.711-0.167c-2.246 0-3.069-1.898-0.969-2.234 2.816-0.45 5.658-3.766 3.228-3.766-1.815 0-2.085-1.132-0.38-1.591 3.146-0.848 3.899-2.961 1.184-3.325-1.439-0.193-2.361-0.78-2.331-1.484 4e-3 -0.11 0.766-0.56 1.693-1 2.464-1.169 2.437-2.714-0.051-3l-1.737-0.2 1.075-1c3.742-3.481 2.736-7.625-1.201-4.946m-25.007 4.546c0.4 0 1.105 0.585 1.565 1.3 0.461 0.715 1.198 1.84 1.638 2.5 1.818 2.727 0.177 9.266-1.673 6.665-0.288-0.404-1.058-0.989-1.711-1.3-2.384-1.133-3.484-10.292-1.128-9.388 0.32 0.123 0.909 0.223 1.309 0.223m-77.191 63.494c1e-3 0.168 0.634 0.338 1.406 0.378 0.773 0.04 1.325-0.056 1.229-0.213-0.243-0.393-2.637-0.544-2.635-0.165m8.69 28.348c-0.161 0.16-0.292 0.567-0.292 0.905 0 0.45 0.118 0.495 0.445 0.168 0.245-0.245 0.376-0.652 0.292-0.905-0.085-0.253-0.285-0.329-0.445-0.168" fill="#2c2524"/>
<path d="m214.4 8.357c0 0.197 0.285 0.467 0.633 0.6 0.978 0.376 1.075 0.294 0.424-0.357-0.68-0.68-1.057-0.767-1.057-0.243m-19.454 6.643c1e-3 2.2 0.068 3.049 0.149 1.887 0.081-1.163 0.081-2.963-2e-3 -4-0.082-1.038-0.148-0.087-0.147 2.113m-14.913 13.544c0.092 0.079 0.707 0.264 1.367 0.412 0.876 0.196 1.038 0.159 0.6-0.138-0.54-0.365-2.368-0.62-1.967-0.274m-37.633 48.056c0 0.55 0.135 1 0.3 1s0.3-0.45 0.3-1-0.135-1-0.3-1-0.3 0.45-0.3 1m-52.546 31.488c0.106 0.172 0.618 0.312 1.136 0.312 0.519 0 1.034 0.225 1.145 0.5 0.146 0.361 0.211 0.367 0.233 0.024 0.018-0.262-0.184-0.61-0.448-0.773-0.65-0.402-2.306-0.452-2.066-0.063m42.34 57.512c0 26.95 0.048 37.975 0.106 24.5s0.058-35.525 0-49-0.106-2.45-0.106 24.5m146.4-0.2c0 26.84 0.048 37.761 0.106 24.269s0.058-35.452 0-48.8c-0.059-13.348-0.106-2.309-0.106 24.531m-198.08-30.6c0 0.99 0.078 1.395 0.173 0.9 0.096-0.495 0.096-1.305 0-1.8-0.095-0.495-0.173-0.09-0.173 0.9m1.509 9.634c0.246 0.459 0.544 0.737 0.664 0.618 0.33-0.33-0.199-1.452-0.684-1.452-0.295 0-0.289 0.256 0.02 0.834m57.62 6.52c-0.871 1.049-0.405 66.664 0.493 69.446 1.907 5.911 3.838 8.141 11.869 13.709 0.55 0.381 1.875 1.323 2.944 2.092 1.069 0.77 2.104 1.399 2.301 1.399 0.21 0 0.316-18.084 0.257-43.5l-0.102-43.5-8.645-0.108c-7.086-0.088-8.73-5e-3 -9.117 0.462m38.229-0.287c-0.367 0.366-0.327 101.02 0.039 101.58 0.162 0.248 2.814 2.209 5.894 4.356 3.08 2.148 6.724 4.69 8.098 5.649 2.758 1.924 3.104 2.035 3.459 1.11 0.635-1.655 0.256-42.497-0.401-43.153-0.572-0.573-6.336-4.577-8.079-5.614-2.082-1.237-5.218-4.361-6.087-6.061l-0.99-1.939-0.127-16.804c-0.083-10.992 0.018-17.183 0.29-17.9l0.417-1.096h7.196c8.837 0 8.024 1.033 8.024-10.2 0-5.2-0.165-8.961-0.414-9.426-0.42-0.785-16.569-1.258-17.319-0.507m37.913 0.241c-0.107 0.279-0.147 4.824-0.087 10.1l0.107 9.592 7.683 0.109 7.684 0.108 0.242 1.292c0.133 0.71 0.185 8.671 0.116 17.691l-0.125 16.4-1.127 2.296c-1.301 2.648-2.613 3.812-9.563 8.485l-4.91 3.301-0.103 21.735c-0.057 11.955 0.038 21.878 0.212 22.052 0.261 0.261 3.216-1.665 11.153-7.269 0.467-0.33 2.035-1.41 3.485-2.4 1.449-0.99 2.684-1.98 2.744-2.2s0.061-23.215 3e-3 -51.1l-0.106-50.7h-8.607c-6.587 0-8.652 0.119-8.801 0.508m37.687-0.241c-0.656 0.655-0.295 86.933 0.363 86.933 0.346 0 1.921-0.956 3.5-2.125 15.657-11.591 14.669-8.073 14.669-52.201 1e-3 -20.83-0.138-31.586-0.413-32.1-0.42-0.785-17.367-1.26-18.119-0.507m-139.77 39.733c0 0.77 0.082 1.085 0.183 0.7 0.1-0.385 0.1-1.015 0-1.4-0.101-0.385-0.183-0.07-0.183 0.7m-38.493 4.725c0 0.356 1.513 2.075 1.828 2.075 0.108 0-0.203-0.54-0.691-1.2-0.927-1.254-1.137-1.415-1.137-0.875m31.579 18.697c-0.528 0.562-0.691 0.919-0.361 0.792 0.521-0.199 1.816-1.814 1.455-1.814-0.073 0-0.566 0.46-1.094 1.022m-35.016 12.268c0.057 0.28 0.425 0.572 0.818 0.648 0.444 0.087 0.61-0.029 0.439-0.306-0.152-0.245-0.427-0.351-0.613-0.236s-0.431 0.023-0.543-0.204c-0.112-0.226-0.158-0.182-0.101 0.098m221.14 1.71c4e-3 0.88 0.086 1.193 0.182 0.695 0.096-0.497 0.092-1.217-8e-3 -1.6-0.1-0.382-0.179 0.025-0.174 0.905m-161.95 34.978c0.081 1.604 0.647 2.052 0.647 0.512 0-0.683-0.159-1.341-0.353-1.461s-0.326 0.307-0.294 0.949m199.07-0.641c0.741 0.653 2.053 1.093 1.901 0.638-0.092-0.276-0.597-0.567-1.122-0.647-0.525-0.081-0.875-0.076-0.779 9e-3m-238.22 1.463c1.105 0.475 1.8 0.475 1.8 0 0-0.22-0.585-0.387-1.3-0.372-1.089 0.024-1.17 0.084-0.5 0.372m221 1c-0.408 0.491-0.38 0.6 0.151 0.6 0.357 0 0.649-0.27 0.649-0.6s-0.068-0.6-0.151-0.6-0.375 0.27-0.649 0.6m5.417 12.724c-0.909 0.553-2.191 1.689-1.61 1.427 1.656-0.746 2.593-1.33 2.593-1.615 0-0.408-7e-3 -0.407-0.983 0.188m-114.11 13.876c0 0.99 0.078 1.395 0.173 0.9 0.096-0.495 0.096-1.305 0-1.8-0.095-0.495-0.173-0.09-0.173 0.9m-5.909 6.706c-0.22 0.162-0.665 0.654-0.988 1.094-0.434 0.591-0.303 0.546 0.5-0.17 0.979-0.872 1.277-1.242 0.988-1.224-0.055 3e-3 -0.28 0.138-0.5 0.3m7.691 7.983c0.71 0.088 1.97 0.09 2.8 3e-3s0.249-0.159-1.291-0.161-2.219 0.069-1.509 0.158m-124.88 2.523c0.09 0.713 0.261 1.395 0.38 1.514s0.154-0.357 0.078-1.056c-0.077-0.7-0.248-1.382-0.381-1.515-0.133-0.132-0.168 0.343-0.077 1.057m252.19 1.255c0 1.45 0.452 1.265 0.618-0.254 0.062-0.557-0.053-1.013-0.253-1.013-0.201 0-0.365 0.57-0.365 1.267m-3.968 19.072c-0.237 0.445-0.431 1.045-0.43 1.335 2e-3 0.289 0.275 4e-3 0.608-0.634 0.332-0.637 0.526-1.238 0.43-1.334-0.097-0.096-0.37 0.189-0.608 0.633m-241.4 4.602c0.195 0.508 2.167 2.116 2.167 1.767 0-0.061-0.54-0.621-1.201-1.244-0.66-0.623-1.095-0.858-0.966-0.523m68.941 5.083c-0.427 0.271-0.299 0.365 0.502 0.37 0.592 3e-3 1.165-0.137 1.273-0.311 0.277-0.449-1.086-0.494-1.775-0.059m98.826-0.024c0.33 0.213 0.96 0.388 1.4 0.388 0.662 0 0.697-0.067 0.2-0.388-0.33-0.213-0.96-0.388-1.4-0.388-0.662 0-0.697 0.067-0.2 0.388m-98.354 25.871c-0.025 0.48 0.237 1.155 0.583 1.5 0.857 0.858 1.246 0.799 0.474-0.071-0.341-0.385-0.708-1.06-0.815-1.5-0.182-0.744-0.198-0.739-0.242 0.071m27.154 6.628c-1.21 0.198-3.28 0.266-4.6 0.153-1.848-0.158-2.17-0.113-1.402 0.195 0.974 0.39 8.23 0.258 8.646-0.158 0.458-0.458-0.552-0.53-2.644-0.19m42.968 0.163c0.128 0.332 0.232 0.679 0.232 0.771s0.191 0.167 0.424 0.167 0.329-0.152 0.214-0.339c-0.115-0.186 1.359-0.289 3.276-0.229l3.486 0.11-3.2-0.356c-1.76-0.196-3.529-0.439-3.932-0.542-0.526-0.133-0.666-0.016-0.5 0.418m-47.104 4.867c-0.959 1.06-0.818 1.425 0.169 0.438 0.459-0.459 0.758-0.91 0.665-1.003s-0.468 0.161-0.834 0.565m9.603 2.938c-0.404 0.44-0.659 0.874-0.569 0.965 0.091 0.091 0.588-0.284 1.103-0.834 0.516-0.549 0.772-0.983 0.569-0.965-0.204 0.019-0.7 0.394-1.103 0.834m35.733 1.271c0 0.144 0.36 0.622 0.8 1.062s0.8 0.648 0.8 0.462-0.36-0.664-0.8-1.062-0.8-0.606-0.8-0.462m-56.099 4.199c-0.605 0.364-1.1 0.81-1.1 0.99-1e-3 0.18 0.539-0.057 1.199-0.527 1.777-1.266 1.715-1.558-0.099-0.463m-3.03 12.305c0.349 0.349 0.944 0.573 1.323 0.496 0.474-0.095 0.276-0.293-0.635-0.634-1.208-0.453-1.268-0.441-0.688 0.138" fill="#fce304"/>
</g>
</svg>
